<svg width="20" height="20" viewBox="0 0 20 20" fill="none" xmlns="http://www.w3.org/2000/svg">
<g clip-path="url(#clip0_2136_801)">
<path d="M5.2074 0.822998C4.84253 0.822998 4.54675 1.11877 4.54675 1.48364V2.8049H5.86801V1.48364C5.86801 1.11877 5.57223 0.822998 5.2074 0.822998Z" fill="white"/>
<path d="M14.4563 0.822998C14.0914 0.822998 13.7956 1.11877 13.7956 1.48364V2.8049H15.1169V1.48364C15.1169 1.11877 14.8211 0.822998 14.4563 0.822998Z" fill="white"/>
<path d="M17.0988 2.80493H15.1169V5.44748C15.1169 5.81235 14.8211 6.10813 14.4563 6.10813C14.0914 6.10813 13.7956 5.81235 13.7956 5.44748V2.80493H5.868V5.44748C5.868 5.81235 5.57223 6.10813 5.20736 6.10813C4.84249 6.10813 4.54671 5.81235 4.54671 5.44748V2.80493H2.56485C1.47027 2.80493 0.582947 3.69226 0.582947 4.78683V17.3389C0.582947 18.4335 1.47027 19.3208 2.56485 19.3208H17.0988C18.1934 19.3208 19.0807 18.4335 19.0807 17.3389V4.78683C19.0807 3.69226 18.1934 2.80493 17.0988 2.80493ZM17.7594 17.3389C17.7594 17.7038 17.4636 17.9995 17.0988 17.9995H2.56485C2.19998 17.9995 1.9042 17.7038 1.9042 17.3389V8.75064H17.7594V17.3389Z" fill="white"/>
<path d="M5.868 10.0718H4.54674C4.18187 10.0718 3.88609 10.3676 3.88609 10.7324C3.88609 11.0973 4.18187 11.3931 4.54674 11.3931H5.868C6.23287 11.3931 6.52865 11.0973 6.52865 10.7324C6.52865 10.3676 6.23287 10.0718 5.868 10.0718Z" fill="white"/>
<path d="M10.4925 10.0718H9.1712C8.80633 10.0718 8.51055 10.3676 8.51055 10.7324C8.51055 11.0973 8.80633 11.3931 9.1712 11.3931H10.4925C10.8573 11.3931 11.1531 11.0973 11.1531 10.7324C11.1531 10.3676 10.8573 10.0718 10.4925 10.0718Z" fill="white"/>
<path d="M15.1169 10.0718H13.7957C13.4308 10.0718 13.135 10.3676 13.135 10.7324C13.135 11.0973 13.4308 11.3931 13.7957 11.3931H15.1169C15.4818 11.3931 15.7776 11.0973 15.7776 10.7324C15.7776 10.3676 15.4817 10.0718 15.1169 10.0718Z" fill="white"/>
<path d="M5.868 12.7144H4.54674C4.18187 12.7144 3.88609 13.0101 3.88609 13.375C3.88609 13.7399 4.18187 14.0357 4.54674 14.0357H5.868C6.23287 14.0357 6.52865 13.7399 6.52865 13.375C6.52865 13.0101 6.23287 12.7144 5.868 12.7144Z" fill="white"/>
<path d="M10.4925 12.7144H9.1712C8.80633 12.7144 8.51055 13.0101 8.51055 13.375C8.51055 13.7399 8.80633 14.0357 9.1712 14.0357H10.4925C10.8573 14.0357 11.1531 13.7399 11.1531 13.375C11.1531 13.0101 10.8573 12.7144 10.4925 12.7144Z" fill="white"/>
<path d="M15.1169 12.7144H13.7957C13.4308 12.7144 13.135 13.0101 13.135 13.375C13.135 13.7399 13.4308 14.0357 13.7957 14.0357H15.1169C15.4818 14.0357 15.7776 13.7399 15.7776 13.375C15.7775 13.0101 15.4817 12.7144 15.1169 12.7144Z" fill="white"/>
<path d="M5.868 15.3569H4.54674C4.18187 15.3569 3.88609 15.6527 3.88609 16.0176C3.88609 16.3824 4.18187 16.6782 4.54674 16.6782H5.868C6.23287 16.6782 6.52865 16.3824 6.52865 16.0175C6.52865 15.6527 6.23287 15.3569 5.868 15.3569Z" fill="white"/>
<path d="M10.4925 15.3569H9.1712C8.80633 15.3569 8.51055 15.6527 8.51055 16.0176C8.51055 16.3824 8.80633 16.6782 9.1712 16.6782H10.4925C10.8573 16.6782 11.1531 16.3824 11.1531 16.0176C11.1531 15.6527 10.8573 15.3569 10.4925 15.3569Z" fill="white"/>
<path d="M15.1169 15.3569H13.7957C13.4308 15.3569 13.135 15.6527 13.135 16.0176C13.135 16.3824 13.4308 16.6782 13.7957 16.6782H15.1169C15.4818 16.6782 15.7776 16.3824 15.7776 16.0176C15.7776 15.6527 15.4817 15.3569 15.1169 15.3569Z" fill="white"/>
</g>
<defs>
<clipPath id="clip0_2136_801">
<rect width="18.4978" height="18.4978" fill="white" transform="translate(0.582935 0.822998)"/>
</clipPath>
</defs>
</svg>
