<svg width="32" height="32" viewBox="0 0 32 32" fill="none" xmlns="http://www.w3.org/2000/svg">
<path fill-rule="evenodd" clip-rule="evenodd" d="M27.6665 9.33325C27.6665 9.88554 27.2188 10.3333 26.6665 10.3333L5.33317 10.3333C4.78089 10.3333 4.33317 9.88554 4.33317 9.33325C4.33317 8.78097 4.78089 8.33325 5.33317 8.33325L26.6665 8.33325C27.2188 8.33325 27.6665 8.78097 27.6665 9.33325Z" fill="#1C274C"/>
<path fill-rule="evenodd" clip-rule="evenodd" d="M27.6665 16C27.6665 16.5523 27.2188 17 26.6665 17L5.33317 17C4.78089 17 4.33317 16.5523 4.33317 16C4.33317 15.4477 4.78089 15 5.33317 15L26.6665 15C27.2188 15 27.6665 15.4477 27.6665 16Z" fill="#1C274C"/>
<path fill-rule="evenodd" clip-rule="evenodd" d="M27.6665 22.6667C27.6665 23.219 27.2188 23.6667 26.6665 23.6667L5.33317 23.6667C4.78089 23.6667 4.33317 23.219 4.33317 22.6667C4.33317 22.1145 4.78089 21.6667 5.33317 21.6667L26.6665 21.6667C27.2188 21.6667 27.6665 22.1145 27.6665 22.6667Z" fill="#1C274C"/>
</svg>
