<svg width="32" height="32" viewBox="0 0 32 32" fill="none" xmlns="http://www.w3.org/2000/svg">
<path d="M24.0002 10.6663H22.6668V7.99967C22.6668 4.31967 19.6802 1.33301 16.0002 1.33301C12.3202 1.33301 9.3335 4.31967 9.3335 7.99967V10.6663H8.00016C6.5335 10.6663 5.3335 11.8663 5.3335 13.333V26.6663C5.3335 28.133 6.5335 29.333 8.00016 29.333H24.0002C25.4668 29.333 26.6668 28.133 26.6668 26.6663V13.333C26.6668 11.8663 25.4668 10.6663 24.0002 10.6663ZM16.0002 22.6663C14.5335 22.6663 13.3335 21.4663 13.3335 19.9997C13.3335 18.533 14.5335 17.333 16.0002 17.333C17.4668 17.333 18.6668 18.533 18.6668 19.9997C18.6668 21.4663 17.4668 22.6663 16.0002 22.6663ZM12.0002 10.6663V7.99967C12.0002 5.78634 13.7868 3.99967 16.0002 3.99967C18.2135 3.99967 20.0002 5.78634 20.0002 7.99967V10.6663H12.0002Z" fill="white"/>
</svg>
