<svg width="18" height="51" viewBox="0 0 18 51" fill="none" xmlns="http://www.w3.org/2000/svg">
<path d="M1.23999 14.5199C1.23999 13.6666 1.55999 12.9466 2.19999 12.3599C2.83999 11.7466 3.66666 11.4399 4.67999 11.4399C5.79999 11.4399 6.69332 11.8399 7.35999 12.6399C8.05332 13.4399 8.39999 14.3866 8.39999 15.4799C8.39999 17.9599 7.71999 19.8266 6.35999 21.0799C4.99999 22.3066 3.49332 22.9866 1.83999 23.1199V20.4399C2.63999 20.3599 3.38666 20.0533 4.07999 19.5199C4.77332 18.9599 5.15999 18.2399 5.23999 17.3599C4.97332 17.4933 4.67999 17.5599 4.35999 17.5599C3.39999 17.5599 2.63999 17.2799 2.07999 16.7199C1.51999 16.1333 1.23999 15.3999 1.23999 14.5199ZM9.55999 14.5199C9.55999 13.6666 9.87999 12.9466 10.52 12.3599C11.16 11.7466 11.9867 11.4399 13 11.4399C14.12 11.4399 15.0133 11.8399 15.68 12.6399C16.3467 13.4399 16.68 14.3866 16.68 15.4799C16.68 17.9599 16 19.8266 14.64 21.0799C13.3067 22.3066 11.8133 22.9866 10.16 23.1199V20.4399C10.96 20.3599 11.7067 20.0533 12.4 19.5199C13.0933 18.9599 13.48 18.2399 13.56 17.3599C13.2933 17.4933 13 17.5599 12.68 17.5599C11.72 17.5599 10.96 17.2799 10.4 16.7199C9.83999 16.1333 9.55999 15.3999 9.55999 14.5199Z" fill="black"/>
</svg>
