<svg width="19" height="51" viewBox="0 0 19 51" fill="none" xmlns="http://www.w3.org/2000/svg">
<path d="M9.35312 20.0399C9.35312 20.8932 9.01978 21.6266 8.35312 22.2399C7.71312 22.8266 6.89978 23.1199 5.91312 23.1199C4.76645 23.1199 3.85978 22.7199 3.19312 21.9199C2.52645 21.1199 2.19312 20.1732 2.19312 19.0799C2.19312 16.5999 2.87312 14.7332 4.23312 13.4799C5.59312 12.2266 7.09978 11.5332 8.75312 11.3999V14.1199C7.95312 14.1999 7.19312 14.5199 6.47312 15.0799C5.77978 15.6399 5.40645 16.3466 5.35312 17.1999C5.61978 17.0666 5.91312 16.9999 6.23312 16.9999C7.21978 16.9999 7.97978 17.2799 8.51312 17.8399C9.07312 18.3999 9.35312 19.1332 9.35312 20.0399ZM17.7531 20.0399C17.7531 20.8932 17.4198 21.6266 16.7531 22.2399C16.1131 22.8266 15.2998 23.1199 14.3131 23.1199C13.1664 23.1199 12.2598 22.7199 11.5931 21.9199C10.9531 21.1199 10.6331 20.1732 10.6331 19.0799C10.6331 16.5999 11.2998 14.7332 12.6331 13.4799C13.9931 12.2266 15.4998 11.5332 17.1531 11.3999V14.1199C16.3531 14.1999 15.5931 14.5199 14.8731 15.0799C14.1798 15.6399 13.8065 16.3466 13.7531 17.1999C14.0198 17.0666 14.3131 16.9999 14.6331 16.9999C15.6198 16.9999 16.3798 17.2799 16.9131 17.8399C17.4731 18.3999 17.7531 19.1332 17.7531 20.0399Z" fill="black"/>
</svg>
