<svg width="24" height="24" viewBox="0 0 24 24" fill="none" xmlns="http://www.w3.org/2000/svg">
<path fill-rule="evenodd" clip-rule="evenodd" d="M11.9999 1.25C9.37654 1.25 7.24989 3.37665 7.24989 6C7.24989 8.62335 9.37654 10.75 11.9999 10.75C14.6232 10.75 16.7499 8.62335 16.7499 6C16.7499 3.37665 14.6232 1.25 11.9999 1.25ZM8.74989 6C8.74989 4.20507 10.205 2.75 11.9999 2.75C13.7948 2.75 15.2499 4.20507 15.2499 6C15.2499 7.79493 13.7948 9.25 11.9999 9.25C10.205 9.25 8.74989 7.79493 8.74989 6Z" fill="#383838"/>
<path fill-rule="evenodd" clip-rule="evenodd" d="M11.9999 12.25C9.68634 12.25 7.55481 12.7759 5.97534 13.6643C4.41937 14.5396 3.24989 15.8661 3.24989 17.5L3.24982 17.602C3.24869 18.7638 3.24728 20.222 4.5263 21.2635C5.15577 21.7761 6.03637 22.1406 7.2261 22.3815C8.41915 22.6229 9.97412 22.75 11.9999 22.75C14.0257 22.75 15.5806 22.6229 16.7737 22.3815C17.9634 22.1406 18.844 21.7761 19.4735 21.2635C20.7525 20.222 20.7511 18.7638 20.75 17.602L20.7499 17.5C20.7499 15.8661 19.5804 14.5396 18.0244 13.6643C16.445 12.7759 14.3134 12.25 11.9999 12.25ZM4.74989 17.5C4.74989 16.6487 5.37127 15.7251 6.71073 14.9717C8.02669 14.2315 9.89516 13.75 11.9999 13.75C14.1046 13.75 15.9731 14.2315 17.289 14.9717C18.6285 15.7251 19.2499 16.6487 19.2499 17.5C19.2499 18.8078 19.2096 19.544 18.5263 20.1004C18.1558 20.4022 17.5364 20.6967 16.4761 20.9113C15.4192 21.1252 13.9741 21.25 11.9999 21.25C10.0257 21.25 8.58063 21.1252 7.52368 20.9113C6.46341 20.6967 5.84401 20.4022 5.47348 20.1004C4.79021 19.544 4.74989 18.8078 4.74989 17.5Z" fill="#383838"/>
</svg>
