<svg width="52" height="52" viewBox="0 0 52 52" fill="none" xmlns="http://www.w3.org/2000/svg">
<path d="M47.6667 14.3333H32.5V10H47.6667V14.3333ZM51.35 36C50.4833 38.8167 47.0167 42.5 40.3 42.5C33.5833 42.5 28.1667 38.8167 28.1667 30.15C28.1667 21.7 33.15 17.3667 40.0833 17.3667C46.8 17.3667 50.9167 21.2667 51.7833 26.9C52 27.9833 52 29.5 52 31.6667H34.6667C34.8833 38.6 42.25 38.8167 44.6333 36H51.35ZM34.6667 27.3333H45.5C45.2833 24.0833 43.1167 22.5667 40.0833 22.5667C37.05 22.5667 35.3167 24.0833 34.6667 27.3333ZM14.0833 42.5H0V10H15.1667C27.0833 10.2167 27.3 21.7 21.0167 24.95C28.3833 27.7667 28.6 42.5 14.0833 42.5ZM6.5 23H14.3C19.7167 23 20.5833 16.5 13.65 16.5H6.5V23ZM13.8667 29.5H6.5V36H13.65C20.3667 36 19.9333 29.5 13.8667 29.5Z" fill="#1157FF"/>
</svg>
