<svg width="32" height="32" viewBox="0 0 32 32" fill="none" xmlns="http://www.w3.org/2000/svg">
<path d="M32 5C32 2.23858 29.7614 0 27 0H5C2.23858 0 0 2.23858 0 5V27C0 29.7614 2.23858 32 5 32H27C29.7614 32 32 29.7614 32 27V5Z" fill="black"/>
<path d="M15.9834 16.0002C15.9834 14.5274 17.1773 13.3335 18.6501 13.3335C20.1228 13.3335 21.3167 14.5274 21.3167 16.0002C21.3167 17.4729 20.1228 18.6668 18.6501 18.6668C17.1773 18.6668 15.9834 17.4729 15.9834 16.0002Z" fill="#1ABCFE"/>
<path d="M10.6499 21.3332C10.6499 19.8604 11.8438 18.6665 13.3166 18.6665H15.9832V21.3332C15.9832 22.8059 14.7893 23.9998 13.3166 23.9998C11.8438 23.9998 10.6499 22.8059 10.6499 21.3332Z" fill="#0ACF83"/>
<path d="M15.9834 8V13.3333H18.6501C20.1228 13.3333 21.3167 12.1394 21.3167 10.6667C21.3167 9.19391 20.1228 8 18.6501 8H15.9834Z" fill="#FF7262"/>
<path d="M10.6499 10.6667C10.6499 12.1394 11.8438 13.3333 13.3166 13.3333H15.9832V8H13.3166C11.8438 8 10.6499 9.19391 10.6499 10.6667Z" fill="#F24E1E"/>
<path d="M10.6499 16.0002C10.6499 17.4729 11.8438 18.6668 13.3166 18.6668H15.9832V13.3335H13.3166C11.8438 13.3335 10.6499 14.5274 10.6499 16.0002Z" fill="#A259FF"/>
</svg>
