<svg width="53" height="52" viewBox="0 0 53 52" fill="none" xmlns="http://www.w3.org/2000/svg">
<path d="M26.9839 26.0007C26.9839 21.2143 30.8641 17.334 35.6506 17.334C40.4371 17.334 44.3174 21.2143 44.3174 26.0007C44.3174 30.7873 40.4371 34.6675 35.6506 34.6675C30.8641 34.6675 26.9839 30.7873 26.9839 26.0007Z" fill="#1ABCFE"/>
<path d="M9.6499 43.3333C9.6499 38.5468 13.5301 34.6665 18.3167 34.6665H26.9834V43.3333C26.9834 48.1198 23.1032 52 18.3167 52C13.5301 52 9.6499 48.1198 9.6499 43.3333Z" fill="#0ACF83"/>
<path d="M26.9839 0V17.3335H35.6506C40.4372 17.3335 44.3174 13.4533 44.3174 8.66675C44.3174 3.88024 40.4372 0 35.6506 0H26.9839Z" fill="#FF7262"/>
<path d="M9.6499 8.66676C9.6499 13.4533 13.5301 17.3335 18.3167 17.3335H26.9834V0H18.3167C13.5301 0 9.6499 3.88024 9.6499 8.66676Z" fill="#F24E1E"/>
<path d="M9.6499 26.0007C9.6499 30.7873 13.5301 34.6675 18.3167 34.6675H26.9834V17.334H18.3167C13.5301 17.334 9.6499 21.2143 9.6499 26.0007Z" fill="#A259FF"/>
</svg>
