<svg width="32" height="32" viewBox="0 0 32 32" fill="none" xmlns="http://www.w3.org/2000/svg">
<path d="M0 5C0 2.23858 2.23858 0 5 0H27C29.7614 0 32 2.23858 32 5V27C32 29.7614 29.7614 32 27 32H5C2.23858 32 0 29.7614 0 27V5Z" fill="black"/>
<path d="M17.5222 14.7749L23.4785 8H22.0671L16.8952 13.8826L12.7644 8H8L14.2466 16.8955L8 24H9.41155L14.8732 17.7878L19.2356 24H24L17.5218 14.7749H17.5222ZM15.5889 16.9738L14.956 16.0881L9.92015 9.03974H12.0882L16.1522 14.728L16.7851 15.6137L22.0677 23.0075H19.8997L15.5889 16.9742V16.9738Z" fill="white"/>
</svg>
