<svg width="24" height="24" viewBox="0 0 24 24" fill="none" xmlns="http://www.w3.org/2000/svg">
<path d="M12.917 13.5198C12.917 12.6025 13.0877 11.7972 13.429 11.1038C13.781 10.4105 14.2557 9.87718 14.853 9.50385C15.4503 9.13051 16.117 8.94385 16.853 8.94385C17.4823 8.94385 18.0317 9.07185 18.501 9.32785C18.981 9.58385 19.349 9.91985 19.605 10.3358V9.07185H22.341V17.9998H19.605V16.7358C19.3383 17.1518 18.965 17.4878 18.485 17.7438C18.0157 17.9998 17.4663 18.1278 16.837 18.1278C16.1117 18.1278 15.4503 17.9412 14.853 17.5678C14.2557 17.1838 13.781 16.6452 13.429 15.9518C13.0877 15.2478 12.917 14.4372 12.917 13.5198ZM19.605 13.5358C19.605 12.8532 19.413 12.3145 19.029 11.9198C18.6557 11.5252 18.197 11.3278 17.653 11.3278C17.109 11.3278 16.645 11.5252 16.261 11.9198C15.8877 12.3038 15.701 12.8372 15.701 13.5198C15.701 14.2025 15.8877 14.7465 16.261 15.1518C16.645 15.5465 17.109 15.7438 17.653 15.7438C18.197 15.7438 18.6557 15.5465 19.029 15.1518C19.413 14.7572 19.605 14.2185 19.605 13.5358Z" fill="white"/>
<path d="M8.65573 16.0161H4.46373L3.79173 18.0001H0.927734L4.99173 6.76807H8.15974L12.2237 18.0001H9.32773L8.65573 16.0161ZM7.95173 13.9041L6.55973 9.79207L5.18373 13.9041H7.95173Z" fill="white"/>
</svg>
