<svg width="24" height="24" viewBox="0 0 24 24" fill="none" xmlns="http://www.w3.org/2000/svg">
<path d="M12.0001 2.3999C12.2387 2.40011 12.4675 2.49507 12.6361 2.6639L14.4361 4.4639C14.5951 4.63451 14.6816 4.86017 14.6775 5.09333C14.6734 5.32649 14.5789 5.54895 14.414 5.71385C14.2491 5.87874 14.0267 5.9732 13.7935 5.97731C13.5604 5.98143 13.3347 5.89488 13.1641 5.7359L12.9001 5.4719V7.4999C12.9001 7.7386 12.8053 7.96752 12.6365 8.1363C12.4677 8.30508 12.2388 8.3999 12.0001 8.3999C11.7614 8.3999 11.5325 8.30508 11.3637 8.1363C11.1949 7.96752 11.1001 7.7386 11.1001 7.4999V5.4719L10.8361 5.7359C10.6655 5.89488 10.4398 5.98143 10.2067 5.97731C9.9735 5.9732 9.75104 5.87874 9.58614 5.71385C9.42125 5.54895 9.32679 5.32649 9.32268 5.09333C9.31856 4.86017 9.40511 4.63451 9.56409 4.4639L11.3641 2.6639C11.5327 2.49507 11.7615 2.40011 12.0001 2.3999ZM14.4001 11.9999C14.4001 12.6364 14.1472 13.2469 13.6971 13.697C13.2471 14.147 12.6366 14.3999 12.0001 14.3999C11.3636 14.3999 10.7531 14.147 10.303 13.697C9.85294 13.2469 9.60009 12.6364 9.60009 11.9999C9.60009 11.3634 9.85294 10.7529 10.303 10.3028C10.7531 9.85276 11.3636 9.5999 12.0001 9.5999C12.6366 9.5999 13.2471 9.85276 13.6971 10.3028C14.1472 10.7529 14.4001 11.3634 14.4001 11.9999ZM2.66409 11.3639C2.49555 11.5327 2.40088 11.7614 2.40088 11.9999C2.40088 12.2384 2.49555 12.4672 2.66409 12.6359L4.46409 14.4359C4.6347 14.5949 4.86035 14.6814 5.09351 14.6773C5.32668 14.6732 5.54914 14.5787 5.71403 14.4138C5.87893 14.249 5.97338 14.0265 5.9775 13.7933C5.98161 13.5602 5.89506 13.3345 5.73609 13.1639L5.47209 12.8999H7.50009C7.73878 12.8999 7.9677 12.8051 8.13648 12.6363C8.30527 12.4675 8.40009 12.2386 8.40009 11.9999C8.40009 11.7612 8.30527 11.5323 8.13648 11.3635C7.9677 11.1947 7.73878 11.0999 7.50009 11.0999H5.47209L5.73609 10.8359C5.89506 10.6653 5.98161 10.4396 5.9775 10.2065C5.97338 9.97331 5.87893 9.75085 5.71403 9.58596C5.54914 9.42106 5.32668 9.32661 5.09351 9.32249C4.86035 9.31838 4.6347 9.40493 4.46409 9.5639L2.66409 11.3639ZM12.0001 21.5999C12.2387 21.5997 12.4675 21.5047 12.6361 21.3359L14.4361 19.5359C14.5245 19.4535 14.5954 19.3541 14.6446 19.2437C14.6938 19.1334 14.7203 19.0142 14.7224 18.8933C14.7245 18.7725 14.7023 18.6525 14.657 18.5404C14.6118 18.4283 14.5444 18.3265 14.4589 18.2411C14.3735 18.1556 14.2717 18.0882 14.1596 18.043C14.0475 17.9977 13.9275 17.9755 13.8067 17.9776C13.6858 17.9797 13.5666 18.0062 13.4562 18.0554C13.3458 18.1046 13.2465 18.1755 13.1641 18.2639L12.9001 18.5279V16.4999C12.9001 16.2612 12.8053 16.0323 12.6365 15.8635C12.4677 15.6947 12.2388 15.5999 12.0001 15.5999C11.7614 15.5999 11.5325 15.6947 11.3637 15.8635C11.1949 16.0323 11.1001 16.2612 11.1001 16.4999V18.5279L10.8361 18.2639C10.6655 18.1049 10.4398 18.0184 10.2067 18.0225C9.9735 18.0266 9.75104 18.1211 9.58614 18.286C9.42125 18.4509 9.32679 18.6733 9.32268 18.9065C9.31856 19.1396 9.40511 19.3653 9.56409 19.5359L11.3641 21.3359C11.5321 21.5051 11.7613 21.5999 12.0001 21.5999ZM21.3361 11.3639C21.5046 11.5327 21.5993 11.7614 21.5993 11.9999C21.5993 12.2384 21.5046 12.4672 21.3361 12.6359L19.5361 14.4359C19.4537 14.5243 19.3543 14.5953 19.2439 14.6444C19.1335 14.6936 19.0144 14.7201 18.8935 14.7222C18.7727 14.7243 18.6526 14.7021 18.5406 14.6568C18.4285 14.6116 18.3267 14.5442 18.2412 14.4587C18.1558 14.3733 18.0884 14.2715 18.0431 14.1594C17.9979 14.0474 17.9756 13.9273 17.9778 13.8065C17.9799 13.6856 18.0064 13.5665 18.0556 13.4561C18.1047 13.3457 18.1757 13.2463 18.2641 13.1639L18.5281 12.8999H16.5001C16.2614 12.8999 16.0325 12.8051 15.8637 12.6363C15.6949 12.4675 15.6001 12.2386 15.6001 11.9999C15.6001 11.7612 15.6949 11.5323 15.8637 11.3635C16.0325 11.1947 16.2614 11.0999 16.5001 11.0999H18.5281L18.2641 10.8359C18.1051 10.6653 18.0186 10.4396 18.0227 10.2065C18.0268 9.97331 18.1212 9.75085 18.2861 9.58596C18.451 9.42106 18.6735 9.32661 18.9067 9.32249C19.1398 9.31838 19.3655 9.40493 19.5361 9.5639L21.3361 11.3639Z" fill="white"/>
</svg>
