<svg width="500" height="420" viewBox="0 0 500 420" fill="none" xmlns="http://www.w3.org/2000/svg">
<g opacity="0.2">
<path d="M244.035 201.784L255.984 195.684L267.25 201.174L255.642 207.579L244.035 201.784Z" fill="url(#paint0_linear_827_9019)"/>
<path d="M244.035 201.784V213.983L255.642 220.083V207.578L244.035 201.784Z" fill="url(#paint1_linear_827_9019)"/>
<path d="M255.643 207.578L267.25 201.173V213.739L255.643 220.082V207.578Z" fill="url(#paint2_linear_827_9019)"/>
</g>
<g opacity="0.4">
<path d="M244.035 183.895L255.984 177.795L267.25 183.285L255.642 189.69L244.035 183.895Z" fill="url(#paint3_linear_827_9019)"/>
<path d="M244.035 183.895V196.095L255.642 202.194V189.69L244.035 183.895Z" fill="url(#paint4_linear_827_9019)"/>
<path d="M255.643 189.69L267.25 183.285V195.851L255.643 202.194V189.69Z" fill="url(#paint5_linear_827_9019)"/>
</g>
<g opacity="0.6">
<path d="M244.035 164.474L255.984 158.374L267.25 163.864L255.642 170.268L244.035 164.474Z" fill="url(#paint6_linear_827_9019)"/>
<path d="M244.035 164.474V176.673L255.642 182.773V170.268L244.035 164.474Z" fill="url(#paint7_linear_827_9019)"/>
<path d="M255.643 170.268L267.25 163.864V176.429L255.643 182.773V170.268Z" fill="url(#paint8_linear_827_9019)"/>
</g>
<g opacity="0.8">
<path d="M244.035 146.585L255.984 140.485L267.25 145.975L255.642 152.38L244.035 146.585Z" fill="url(#paint9_linear_827_9019)"/>
<path d="M244.035 146.585V158.785L255.642 164.884V152.38L244.035 146.585Z" fill="url(#paint10_linear_827_9019)"/>
<path d="M255.643 152.38L267.25 145.975V158.541L255.643 164.884V152.38Z" fill="url(#paint11_linear_827_9019)"/>
</g>
<path fill-rule="evenodd" clip-rule="evenodd" d="M165.139 108.073L165.139 99.5975C165.139 99.5975 255.441 63.3859 256.116 63.7302L345.985 100.413V108.259C345.985 108.259 345.985 109.042 345.109 109.433L256.838 154.908C256.164 155.252 255.104 155.252 254.429 154.908L165.669 109.236C164.995 108.891 165.139 108.073 165.139 108.073Z" fill="#DBDDDE"/>
<path fill-rule="evenodd" clip-rule="evenodd" d="M165.564 99.0432L254.521 53.9219C255.196 53.5775 256.256 53.5775 256.931 53.9219L345.535 99.8256C346.21 100.17 346.21 100.73 345.535 101.074L257.702 146.171C257.027 146.515 255.967 146.515 255.292 146.171L165.612 100.292C164.938 99.9472 164.89 99.3876 165.564 99.0432Z" fill="#F3F3F3"/>
<path fill-rule="evenodd" clip-rule="evenodd" d="M213.94 98.7319L254.777 77.7428C255.082 77.5792 255.569 77.5792 255.934 77.7428L297.014 98.8954C297.318 99.059 297.318 99.3316 297.014 99.4951L256.238 120.43C255.934 120.593 255.447 120.593 255.082 120.43L213.94 99.2771C213.636 99.1135 213.636 98.8954 213.94 98.7319Z" fill="#DBDDDE"/>
<path fill-rule="evenodd" clip-rule="evenodd" d="M221.926 102.976L254.913 86.4004C255.185 86.279 255.661 86.279 255.934 86.4004L289.601 102.854C289.873 102.976 289.873 103.219 289.601 103.401L256.274 120.462C256.002 120.583 255.525 120.583 255.253 120.462L221.926 103.522C221.654 103.34 221.654 103.097 221.926 102.976Z" fill="#F9F9FE"/>
<path d="M279.034 56.4421L292.602 49.5159L305.395 55.7495L292.215 63.0221L279.034 56.4421Z" fill="white"/>
<path d="M279.034 56.4419V79.9912L292.215 86.9175V63.0218L279.034 56.4419Z" fill="#F7F7F7"/>
<path d="M292.215 63.0226L305.395 55.75V79.7149L292.215 86.9182V63.0226Z" fill="#E9E9EB"/>
<path fill-rule="evenodd" clip-rule="evenodd" d="M285.092 62.8414C286.019 62.5928 287.179 63.2556 287.689 64.374C288.199 65.4924 287.828 66.5694 286.9 66.8593C285.973 67.1078 284.814 66.4451 284.304 65.3267C283.794 64.2083 284.165 63.1313 285.092 62.8414Z" fill="#17CE8A"/>
<path fill-rule="evenodd" clip-rule="evenodd" d="M285.558 62.8406C286.207 62.8406 287.828 64.3633 287.828 65.7373C287.828 65.9336 286.855 66.896 286.855 66.896L265.04 85.5292C265.04 85.5292 256.502 85.9218 251.269 77.6777C247.028 71.004 250.223 64.7228 252.371 64.9191L284.585 63.1303C284.585 63.1303 284.91 62.8406 285.558 62.8406Z" fill="url(#paint12_linear_827_9019)"/>
<g opacity="0.9">
<path d="M244.035 106.72L255.984 100.62L267.25 106.11L255.642 112.514L244.035 106.72Z" fill="url(#paint13_linear_827_9019)"/>
<path d="M244.035 106.72V114.831L255.642 120.93V112.515L244.035 106.72Z" fill="url(#paint14_linear_827_9019)"/>
<path d="M255.642 112.514L267.25 106.11V114.586L255.642 120.93V112.514Z" fill="url(#paint15_linear_827_9019)"/>
</g>
<path d="M244.035 88.8312L255.984 82.7314L267.25 88.2212L255.642 94.6259L244.035 88.8312Z" fill="url(#paint16_linear_827_9019)"/>
<path d="M244.035 88.8313V101.031L255.642 107.13V94.626L244.035 88.8313Z" fill="url(#paint17_linear_827_9019)"/>
<path d="M255.643 94.6252L267.25 88.2205V100.786L255.643 107.13V94.6252Z" fill="url(#paint18_linear_827_9019)"/>
<path d="M244.035 69.4298L255.984 63.3301L267.25 68.8198L255.642 75.2245L244.035 69.4298Z" fill="#42E7AA"/>
<path d="M244.035 69.4302V81.6296L255.642 87.7294V75.2249L244.035 69.4302Z" fill="#16A568"/>
<path d="M255.643 75.2248L267.25 68.8201V81.3855L255.643 87.7292V75.2248Z" fill="#17CE8A"/>
<path d="M244.044 50.4369L255.993 44.3372L267.26 49.8269L255.652 56.2316L244.044 50.4369Z" fill="#F67C7C"/>
<path d="M244.044 50.4373V62.6367L255.652 68.7364V56.232L244.044 50.4373Z" fill="#DE2424"/>
<path d="M255.652 56.2316L267.26 49.8269V62.3923L255.652 68.7361V56.2316Z" fill="#F32626"/>
<path d="M244.035 30.327L255.984 24.2273L267.25 29.717L255.642 36.1218L244.035 30.327Z" fill="#06AFFF"/>
<path d="M244.035 30.3279V42.5273L255.642 48.6271V36.1226L244.035 30.3279Z" fill="#2F80ED"/>
<path d="M255.643 36.1218L267.25 29.717V42.2825L255.643 48.6262V36.1218Z" fill="#3C8AFE"/>
<path d="M244.035 9.09973L255.984 3L267.25 8.48975L255.642 14.8945L244.035 9.09973Z" fill="#FFEE50"/>
<path d="M244.035 9.1001V21.2996L255.642 27.3993V14.8948L244.035 9.1001Z" fill="#CCBA11"/>
<path d="M255.643 14.8945L267.25 8.48975V21.0552L255.643 27.3989V14.8945Z" fill="#FFD215"/>
<g opacity="0.2">
<path d="M421.183 180.665L430.415 175.952L439.12 180.194L430.152 185.143L421.183 180.665Z" fill="url(#paint19_linear_827_9019)"/>
<path d="M421.183 180.665V190.091L430.152 194.805V185.143L421.183 180.665Z" fill="url(#paint20_linear_827_9019)"/>
<path d="M430.152 185.143L439.121 180.194V189.903L430.152 194.804V185.143Z" fill="url(#paint21_linear_827_9019)"/>
</g>
<g opacity="0.4">
<path d="M421.183 166.843L430.415 162.13L439.12 166.371L430.152 171.32L421.183 166.843Z" fill="url(#paint22_linear_827_9019)"/>
<path d="M421.183 166.843V176.269L430.152 180.982V171.32L421.183 166.843Z" fill="url(#paint23_linear_827_9019)"/>
<path d="M430.152 171.32L439.121 166.371V176.08L430.152 180.982V171.32Z" fill="url(#paint24_linear_827_9019)"/>
</g>
<g opacity="0.6">
<path d="M421.183 151.836L430.415 147.123L439.12 151.365L430.152 156.314L421.183 151.836Z" fill="url(#paint25_linear_827_9019)"/>
<path d="M421.183 151.836V161.262L430.152 165.975V156.314L421.183 151.836Z" fill="url(#paint26_linear_827_9019)"/>
<path d="M430.152 156.314L439.121 151.365V161.074L430.152 165.976V156.314Z" fill="url(#paint27_linear_827_9019)"/>
</g>
<g opacity="0.8">
<path d="M421.183 138.014L430.415 133.301L439.12 137.543L430.152 142.492L421.183 138.014Z" fill="url(#paint28_linear_827_9019)"/>
<path d="M421.183 138.014V147.441L430.152 152.154V142.492L421.183 138.014Z" fill="url(#paint29_linear_827_9019)"/>
<path d="M430.152 142.491L439.121 137.543V147.252L430.152 152.153V142.491Z" fill="url(#paint30_linear_827_9019)"/>
</g>
<path fill-rule="evenodd" clip-rule="evenodd" d="M360.222 108.257V101.708C360.222 101.708 429.996 73.7282 430.517 73.9943L499.956 102.338V108.401C499.956 108.401 499.956 109.005 499.28 109.307L431.075 144.445C430.554 144.711 429.735 144.711 429.214 144.445L360.632 109.155C360.111 108.889 360.222 108.257 360.222 108.257Z" fill="#DBDDDE"/>
<path fill-rule="evenodd" clip-rule="evenodd" d="M360.551 101.28L429.285 66.4161C429.807 66.15 430.626 66.15 431.147 66.4161L499.609 101.885C500.13 102.151 500.13 102.583 499.609 102.849L431.743 137.694C431.221 137.96 430.402 137.96 429.881 137.694L360.588 102.245C360.067 101.979 360.029 101.546 360.551 101.28Z" fill="#F3F3F3"/>
<path fill-rule="evenodd" clip-rule="evenodd" d="M397.929 101.04L429.483 84.8223C429.718 84.6959 430.094 84.6959 430.376 84.8223L462.118 101.166C462.353 101.293 462.353 101.503 462.118 101.63L430.611 117.805C430.376 117.932 430 117.932 429.718 117.805L397.929 101.461C397.694 101.335 397.694 101.166 397.929 101.04Z" fill="#DBDDDE"/>
<path fill-rule="evenodd" clip-rule="evenodd" d="M404.1 104.318L429.588 91.5103C429.798 91.4165 430.166 91.4165 430.376 91.5103L456.39 104.224C456.6 104.318 456.6 104.505 456.39 104.646L430.639 117.829C430.429 117.922 430.061 117.922 429.851 117.829L404.1 104.74C403.889 104.599 403.889 104.411 404.1 104.318Z" fill="#F9F9FE"/>
<path d="M448.226 68.3637L458.71 63.012L468.594 67.8285L458.41 73.4478L448.226 68.3637Z" fill="white"/>
<path d="M448.226 68.3635V86.5594L458.41 91.9111V73.4477L448.226 68.3635Z" fill="#F7F7F7"/>
<path d="M458.41 73.4479L468.594 67.8286V86.3456L458.41 91.9114V73.4479Z" fill="#E9E9EB"/>
<path fill-rule="evenodd" clip-rule="evenodd" d="M452.906 73.3083C453.623 73.1163 454.518 73.6283 454.913 74.4925C455.307 75.3567 455.02 76.1888 454.303 76.4128C453.587 76.6049 452.691 76.0928 452.297 75.2286C451.903 74.3645 452.19 73.5323 452.906 73.3083Z" fill="#17CE8A"/>
<path fill-rule="evenodd" clip-rule="evenodd" d="M453.267 73.3088C453.768 73.3088 455.02 74.4854 455.02 75.5471C455.02 75.6987 454.269 76.4423 454.269 76.4423L437.413 90.8397C437.413 90.8397 430.816 91.143 426.772 84.7731C423.495 79.6165 425.964 74.7632 427.624 74.9148L452.515 73.5327C452.515 73.5327 452.765 73.3088 453.267 73.3088Z" fill="url(#paint31_linear_827_9019)"/>
<g opacity="0.9">
<path d="M421.183 107.211L430.415 102.498L439.12 106.74L430.152 111.688L421.183 107.211Z" fill="url(#paint32_linear_827_9019)"/>
<path d="M421.183 107.211V113.478L430.152 118.191V111.688L421.183 107.211Z" fill="url(#paint33_linear_827_9019)"/>
<path d="M430.152 111.688L439.121 106.74V113.289L430.152 118.191V111.688Z" fill="url(#paint34_linear_827_9019)"/>
</g>
<path d="M421.183 93.3891L430.415 88.676L439.12 92.9178L430.152 97.8665L421.183 93.3891Z" fill="url(#paint35_linear_827_9019)"/>
<path d="M421.183 93.3894V102.816L430.152 107.529V97.8668L421.183 93.3894Z" fill="url(#paint36_linear_827_9019)"/>
<path d="M430.152 97.8665L439.121 92.9177V102.627L430.152 107.528V97.8665Z" fill="url(#paint37_linear_827_9019)"/>
<path d="M421.552 78.6477L430.785 73.9346L439.49 78.1763L430.521 83.1251L421.552 78.6477Z" fill="#FFEE50"/>
<path d="M421.552 78.6477V88.0739L430.521 92.787V83.1251L421.552 78.6477Z" fill="#CCBA11"/>
<path d="M430.521 83.1257L439.49 78.177V87.8859L430.521 92.7876V83.1257Z" fill="#FFD215"/>
<path d="M421.552 63.5732L430.785 58.8601L439.49 63.1019L430.521 68.0506L421.552 63.5732Z" fill="#06AFFF"/>
<path d="M421.552 63.5732V72.9994L430.521 77.7125V68.0507L421.552 63.5732Z" fill="#2F80ED"/>
<path d="M430.521 68.0505L439.49 63.1018V72.8108L430.521 77.7124V68.0505Z" fill="#3C8AFE"/>
<path d="M421.19 47.9326L430.423 43.2195L439.128 47.4613L430.159 52.41L421.19 47.9326Z" fill="#F67C7C"/>
<path d="M421.19 47.9326V57.3588L430.159 62.0719V52.41L421.19 47.9326Z" fill="#DE2424"/>
<path d="M430.159 52.4097L439.128 47.4609V57.1699L430.159 62.0715V52.4097Z" fill="#F32626"/>
<path d="M421.183 33.4086L430.415 28.6956L439.12 32.9373L430.152 37.8861L421.183 33.4086Z" fill="#42E7AA"/>
<path d="M421.183 33.4087V42.8349L430.152 47.5479V37.8861L421.183 33.4087Z" fill="#16A568"/>
<path d="M430.152 37.886L439.121 32.9373V42.6462L430.152 47.5478V37.886Z" fill="#17CE8A"/>
<g opacity="0.2">
<path d="M359.123 355.222L374.789 347.225L389.56 354.423L374.341 362.82L359.123 355.222Z" fill="url(#paint38_linear_827_9019)"/>
<path d="M359.123 355.222V371.217L374.341 379.214V362.82L359.123 355.222Z" fill="url(#paint39_linear_827_9019)"/>
<path d="M374.341 362.82L389.56 354.423V370.897L374.341 379.214V362.82Z" fill="url(#paint40_linear_827_9019)"/>
</g>
<g opacity="0.4">
<path d="M359.123 331.769L374.789 323.772L389.56 330.97L374.341 339.367L359.123 331.769Z" fill="url(#paint41_linear_827_9019)"/>
<path d="M359.123 331.77V347.764L374.341 355.761V339.367L359.123 331.77Z" fill="url(#paint42_linear_827_9019)"/>
<path d="M374.341 339.367L389.56 330.969V347.444L374.341 355.761V339.367Z" fill="url(#paint43_linear_827_9019)"/>
</g>
<g opacity="0.6">
<path d="M359.123 306.306L374.789 298.309L389.56 305.506L374.341 313.903L359.123 306.306Z" fill="url(#paint44_linear_827_9019)"/>
<path d="M359.123 306.306V322.301L374.341 330.298V313.904L359.123 306.306Z" fill="url(#paint45_linear_827_9019)"/>
<path d="M374.341 313.903L389.56 305.506V321.98L374.341 330.298V313.903Z" fill="url(#paint46_linear_827_9019)"/>
</g>
<g opacity="0.8">
<path d="M359.123 282.853L374.789 274.855L389.56 282.053L374.341 290.45L359.123 282.853Z" fill="url(#paint47_linear_827_9019)"/>
<path d="M359.123 282.853V298.848L374.341 306.845V290.45L359.123 282.853Z" fill="url(#paint48_linear_827_9019)"/>
<path d="M374.341 290.45L389.56 282.053V298.528L374.341 306.845V290.45Z" fill="url(#paint49_linear_827_9019)"/>
</g>
<path fill-rule="evenodd" clip-rule="evenodd" d="M255.684 232.361V221.248C255.684 221.248 374.077 173.772 374.961 174.223L492.787 222.317V232.605C492.787 232.605 492.787 233.63 491.639 234.143L375.909 293.765C375.024 294.217 373.634 294.217 372.75 293.765L256.379 233.885C255.494 233.433 255.684 232.361 255.684 232.361Z" fill="#DBDDDE"/>
<path fill-rule="evenodd" clip-rule="evenodd" d="M256.241 220.522L372.871 161.364C373.756 160.913 375.146 160.913 376.03 161.364L492.198 221.548C493.082 221.999 493.082 222.733 492.198 223.184L377.041 282.31C376.157 282.762 374.767 282.762 373.882 282.31L256.304 222.158C255.42 221.707 255.357 220.973 256.241 220.522Z" fill="#F3F3F3"/>
<path fill-rule="evenodd" clip-rule="evenodd" d="M319.667 220.114L373.207 192.595C373.606 192.381 374.244 192.381 374.723 192.595L428.583 220.328C428.982 220.542 428.982 220.9 428.583 221.114L375.122 248.561C374.723 248.776 374.085 248.776 373.606 248.561L319.667 220.828C319.268 220.614 319.268 220.328 319.667 220.114Z" fill="#DBDDDE"/>
<path fill-rule="evenodd" clip-rule="evenodd" d="M330.136 225.677L373.385 203.946C373.742 203.786 374.366 203.786 374.723 203.946L418.863 225.518C419.22 225.677 419.22 225.996 418.863 226.234L375.169 248.603C374.812 248.762 374.188 248.762 373.831 248.603L330.136 226.394C329.78 226.155 329.78 225.836 330.136 225.677Z" fill="#F9F9FE"/>
<path d="M405.01 164.668L422.799 155.587L439.571 163.76L422.291 173.295L405.01 164.668Z" fill="white"/>
<path d="M405.01 164.668V195.543L422.291 204.624V173.295L405.01 164.668Z" fill="#F7F7F7"/>
<path d="M422.291 173.295L439.571 163.76V195.18L422.291 204.625V173.295Z" fill="#E9E9EB"/>
<path fill-rule="evenodd" clip-rule="evenodd" d="M412.952 173.058C414.168 172.732 415.688 173.601 416.357 175.067C417.025 176.533 416.539 177.945 415.323 178.326C414.107 178.651 412.588 177.783 411.919 176.316C411.25 174.85 411.736 173.438 412.952 173.058Z" fill="#17CE8A"/>
<path fill-rule="evenodd" clip-rule="evenodd" d="M413.563 173.058C414.414 173.058 416.539 175.055 416.539 176.856C416.539 177.113 415.264 178.375 415.264 178.375L386.662 202.805C386.662 202.805 375.469 203.319 368.608 192.511C363.047 183.761 367.236 175.526 370.052 175.783L412.288 173.438C412.288 173.438 412.713 173.058 413.563 173.058Z" fill="url(#paint50_linear_827_9019)"/>
<g opacity="0.9">
<path d="M359.123 230.585L374.789 222.588L389.56 229.785L374.341 238.183L359.123 230.585Z" fill="url(#paint51_linear_827_9019)"/>
<path d="M359.123 230.585V241.219L374.341 249.216V238.183L359.123 230.585Z" fill="url(#paint52_linear_827_9019)"/>
<path d="M374.341 238.183L389.56 229.785V240.899L374.341 249.216V238.183Z" fill="url(#paint53_linear_827_9019)"/>
</g>
<path d="M359.123 207.132L374.789 199.135L389.56 206.332L374.341 214.729L359.123 207.132Z" fill="url(#paint54_linear_827_9019)"/>
<path d="M359.123 207.132V223.127L374.341 231.124V214.729L359.123 207.132Z" fill="url(#paint55_linear_827_9019)"/>
<path d="M374.341 214.729L389.56 206.332V222.806L374.341 231.123V214.729Z" fill="url(#paint56_linear_827_9019)"/>
<path d="M359.123 181.931L374.789 173.934L389.56 181.132L374.341 189.529L359.123 181.931Z" fill="#06AFFF"/>
<path d="M359.123 181.932V197.926L374.341 205.923V189.529L359.123 181.932Z" fill="#2F80ED"/>
<path d="M374.341 189.529L389.56 181.132V197.606L374.341 205.923V189.529Z" fill="#3C8AFE"/>
<path d="M359.123 156.875L374.789 148.878L389.56 156.076L374.341 164.473L359.123 156.875Z" fill="#42E7AA"/>
<path d="M359.123 156.875V172.87L374.341 180.867V164.473L359.123 156.875Z" fill="#16A568"/>
<path d="M374.341 164.474L389.56 156.076V172.551L374.341 180.868V164.474Z" fill="#17CE8A"/>
<path d="M359.123 130.072L374.789 122.075L389.56 129.272L374.341 137.669L359.123 130.072Z" fill="#FFEE50"/>
<path d="M359.123 130.072V146.066L374.341 154.064V137.669L359.123 130.072Z" fill="#CCBA11"/>
<path d="M374.341 137.669L389.56 129.272V145.746L374.341 154.063V137.669Z" fill="#FFD215"/>
<path d="M359.135 102.609L374.801 94.6118L389.572 101.809L374.353 110.206L359.135 102.609Z" fill="#F67C7C"/>
<path d="M359.135 102.609V118.604L374.353 126.601V110.207L359.135 102.609Z" fill="#DE2424"/>
<path d="M374.353 110.206L389.572 101.809V118.284L374.353 126.601V110.206Z" fill="#F32626"/>
<g opacity="0.2">
<path d="M133.743 385.445L153.984 375.112L173.069 384.411L153.406 395.261L133.743 385.445Z" fill="url(#paint57_linear_827_9019)"/>
<path d="M133.743 385.444V406.11L153.406 416.442V395.26L133.743 385.444Z" fill="url(#paint58_linear_827_9019)"/>
<path d="M153.406 395.261L173.069 384.412V405.697L153.406 416.443V395.261Z" fill="url(#paint59_linear_827_9019)"/>
</g>
<g opacity="0.4">
<path d="M133.743 355.143L153.984 344.81L173.069 354.109L153.406 364.959L133.743 355.143Z" fill="url(#paint60_linear_827_9019)"/>
<path d="M133.743 355.143V375.808L153.406 386.141V364.959L133.743 355.143Z" fill="url(#paint61_linear_827_9019)"/>
<path d="M153.406 364.958L173.069 354.109V375.394L153.406 386.14V364.958Z" fill="url(#paint62_linear_827_9019)"/>
</g>
<g opacity="0.6">
<path d="M133.743 322.243L153.984 311.91L173.069 321.21L153.406 332.059L133.743 322.243Z" fill="url(#paint63_linear_827_9019)"/>
<path d="M133.743 322.244V342.909L153.406 353.242V332.06L133.743 322.244Z" fill="url(#paint64_linear_827_9019)"/>
<path d="M153.406 332.06L173.069 321.21V342.496L153.406 353.242V332.06Z" fill="url(#paint65_linear_827_9019)"/>
</g>
<g opacity="0.8">
<path d="M133.743 291.941L153.984 281.608L173.069 290.907L153.406 301.757L133.743 291.941Z" fill="url(#paint66_linear_827_9019)"/>
<path d="M133.743 291.94V312.606L153.406 322.938V301.756L133.743 291.94Z" fill="url(#paint67_linear_827_9019)"/>
<path d="M153.406 301.757L173.069 290.908V312.193L153.406 322.939V301.757Z" fill="url(#paint68_linear_827_9019)"/>
</g>
<path fill-rule="evenodd" clip-rule="evenodd" d="M0.0976005 226.704L0.0976005 212.346C0.0976005 212.346 153.064 151.005 154.207 151.589L306.441 213.727V227.019C306.441 227.019 306.441 228.344 304.958 229.007L155.431 306.04C154.289 306.623 152.493 306.623 151.35 306.04L0.995484 228.672C-0.147277 228.089 0.0976005 226.704 0.0976005 226.704Z" fill="#DBDDDE"/>
<path fill-rule="evenodd" clip-rule="evenodd" d="M0.817326 211.407L151.507 134.973C152.649 134.39 154.445 134.39 155.588 134.973L305.68 212.732C306.822 213.315 306.822 214.263 305.68 214.847L156.894 291.239C155.751 291.822 153.955 291.822 152.813 291.239L0.898952 213.521C-0.243808 212.938 -0.325434 211.99 0.817326 211.407Z" fill="#F3F3F3"/>
<path fill-rule="evenodd" clip-rule="evenodd" d="M82.7645 210.88L151.94 175.325C152.456 175.048 153.281 175.048 153.899 175.325L223.487 211.157C224.003 211.434 224.003 211.896 223.487 212.173L154.415 247.635C153.899 247.912 153.074 247.912 152.456 247.635L82.7645 211.803C82.2491 211.526 82.2491 211.157 82.7645 210.88Z" fill="#DBDDDE"/>
<path fill-rule="evenodd" clip-rule="evenodd" d="M96.2917 218.068L152.17 189.99C152.631 189.784 153.438 189.784 153.899 189.99L210.929 217.862C211.39 218.068 211.39 218.479 210.929 218.788L154.475 247.688C154.014 247.894 153.207 247.894 152.746 247.688L96.2917 218.993C95.8308 218.685 95.8308 218.274 96.2917 218.068Z" fill="#F9F9FE"/>
<path d="M193.03 139.243L216.014 127.511L237.685 138.07L215.358 150.39L193.03 139.243Z" fill="white"/>
<path d="M193.03 139.244V179.135L215.358 190.868V150.39L193.03 139.244Z" fill="#F7F7F7"/>
<path d="M215.357 150.39L237.685 138.07V178.666L215.357 190.868V150.39Z" fill="#E9E9EB"/>
<path fill-rule="evenodd" clip-rule="evenodd" d="M203.292 150.083C204.863 149.662 206.827 150.784 207.691 152.679C208.555 154.573 207.926 156.398 206.355 156.889C204.784 157.31 202.821 156.187 201.957 154.293C201.093 152.398 201.721 150.574 203.292 150.083Z" fill="#17CE8A"/>
<path fill-rule="evenodd" clip-rule="evenodd" d="M204.082 150.083C205.18 150.083 207.927 152.662 207.927 154.989C207.927 155.322 206.279 156.952 206.279 156.952L169.325 188.516C169.325 188.516 154.862 189.181 145.998 175.216C138.813 163.911 144.225 153.271 147.864 153.603L202.434 150.573C202.434 150.573 202.983 150.083 204.082 150.083Z" fill="url(#paint69_linear_827_9019)"/>
<g opacity="0.9">
<path d="M133.743 224.411L153.984 214.078L173.069 223.378L153.406 234.227L133.743 224.411Z" fill="url(#paint70_linear_827_9019)"/>
<path d="M133.743 224.41V238.149L153.406 248.481V234.226L133.743 224.41Z" fill="url(#paint71_linear_827_9019)"/>
<path d="M153.406 234.226L173.069 223.377V237.736L153.406 248.482V234.226Z" fill="url(#paint72_linear_827_9019)"/>
</g>
<path d="M133.743 194.108L153.984 183.775L173.069 193.075L153.406 203.924L133.743 194.108Z" fill="url(#paint73_linear_827_9019)"/>
<path d="M133.743 194.109V214.774L153.406 225.107V203.925L133.743 194.109Z" fill="url(#paint74_linear_827_9019)"/>
<path d="M153.406 203.925L173.069 193.075V214.361L153.406 225.107V203.925Z" fill="url(#paint75_linear_827_9019)"/>
<path d="M133.759 161.208L154 150.876L173.084 160.175L153.421 171.024L133.759 161.208Z" fill="#F67C7C"/>
<path d="M133.759 161.208V181.874L153.422 192.206V171.024L133.759 161.208Z" fill="#DE2424"/>
<path d="M153.422 171.024L173.084 160.175V181.46L153.422 192.206V171.024Z" fill="#F32626"/>
<path d="M133.743 129.175L153.984 118.842L173.069 128.142L153.406 138.991L133.743 129.175Z" fill="#42E7AA"/>
<path d="M133.743 129.174V149.839L153.406 160.172V138.99L133.743 129.174Z" fill="#16A568"/>
<path d="M153.406 138.991L173.069 128.141V149.427L153.406 160.173V138.991Z" fill="#17CE8A"/>
<path d="M133.743 94.5441L153.984 84.2114L173.069 93.5108L153.406 104.36L133.743 94.5441Z" fill="#FFEE50"/>
<path d="M133.743 94.5442V115.209L153.406 125.542V104.36L133.743 94.5442Z" fill="#CCBA11"/>
<path d="M153.406 104.36L173.069 93.5105V114.796L153.406 125.542V104.36Z" fill="#FFD215"/>
<path d="M133.743 59.0472L153.984 48.7146L173.069 58.014L153.406 68.8632L133.743 59.0472Z" fill="#06AFFF"/>
<path d="M133.743 59.0469V79.7122L153.406 90.0448V68.8629L133.743 59.0469Z" fill="#2F80ED"/>
<path d="M153.406 68.8637L173.069 58.0144V79.2996L153.406 90.0456V68.8637Z" fill="#3C8AFE"/>
<defs>
<linearGradient id="paint0_linear_827_9019" x1="255.643" y1="195.684" x2="255.643" y2="207.58" gradientUnits="userSpaceOnUse">
<stop stop-color="#E8E8E8"/>
<stop offset="1" stop-color="#727272"/>
</linearGradient>
<linearGradient id="paint1_linear_827_9019" x1="249.839" y1="201.784" x2="249.839" y2="220.086" gradientUnits="userSpaceOnUse">
<stop stop-color="#E8E8E8"/>
<stop offset="1" stop-color="#727272"/>
</linearGradient>
<linearGradient id="paint2_linear_827_9019" x1="261.447" y1="201.173" x2="261.447" y2="220.085" gradientUnits="userSpaceOnUse">
<stop stop-color="#E8E8E8"/>
<stop offset="1" stop-color="#727272"/>
</linearGradient>
<linearGradient id="paint3_linear_827_9019" x1="255.643" y1="177.795" x2="255.643" y2="189.691" gradientUnits="userSpaceOnUse">
<stop stop-color="#E8E8E8"/>
<stop offset="1" stop-color="#727272"/>
</linearGradient>
<linearGradient id="paint4_linear_827_9019" x1="249.839" y1="183.895" x2="249.839" y2="202.197" gradientUnits="userSpaceOnUse">
<stop stop-color="#E8E8E8"/>
<stop offset="1" stop-color="#727272"/>
</linearGradient>
<linearGradient id="paint5_linear_827_9019" x1="261.447" y1="183.285" x2="261.447" y2="202.197" gradientUnits="userSpaceOnUse">
<stop stop-color="#E8E8E8"/>
<stop offset="1" stop-color="#727272"/>
</linearGradient>
<linearGradient id="paint6_linear_827_9019" x1="255.643" y1="158.374" x2="255.643" y2="170.27" gradientUnits="userSpaceOnUse">
<stop stop-color="#E8E8E8"/>
<stop offset="1" stop-color="#727272"/>
</linearGradient>
<linearGradient id="paint7_linear_827_9019" x1="249.839" y1="164.474" x2="249.839" y2="182.776" gradientUnits="userSpaceOnUse">
<stop stop-color="#E8E8E8"/>
<stop offset="1" stop-color="#727272"/>
</linearGradient>
<linearGradient id="paint8_linear_827_9019" x1="261.447" y1="163.864" x2="261.447" y2="182.776" gradientUnits="userSpaceOnUse">
<stop stop-color="#E8E8E8"/>
<stop offset="1" stop-color="#727272"/>
</linearGradient>
<linearGradient id="paint9_linear_827_9019" x1="255.643" y1="140.485" x2="255.643" y2="152.381" gradientUnits="userSpaceOnUse">
<stop stop-color="#E8E8E8"/>
<stop offset="1" stop-color="#727272"/>
</linearGradient>
<linearGradient id="paint10_linear_827_9019" x1="249.839" y1="146.585" x2="249.839" y2="164.887" gradientUnits="userSpaceOnUse">
<stop stop-color="#E8E8E8"/>
<stop offset="1" stop-color="#727272"/>
</linearGradient>
<linearGradient id="paint11_linear_827_9019" x1="261.447" y1="145.975" x2="261.447" y2="164.887" gradientUnits="userSpaceOnUse">
<stop stop-color="#E8E8E8"/>
<stop offset="1" stop-color="#727272"/>
</linearGradient>
<linearGradient id="paint12_linear_827_9019" x1="288.068" y1="62.6755" x2="257.741" y2="79.9903" gradientUnits="userSpaceOnUse">
<stop stop-color="#17CE8A" stop-opacity="0.46"/>
<stop offset="1" stop-color="#17CE8A" stop-opacity="0"/>
</linearGradient>
<linearGradient id="paint13_linear_827_9019" x1="255.643" y1="100.62" x2="255.643" y2="112.516" gradientUnits="userSpaceOnUse">
<stop stop-color="#E8E8E8"/>
<stop offset="1" stop-color="#727272"/>
</linearGradient>
<linearGradient id="paint14_linear_827_9019" x1="249.839" y1="106.72" x2="249.839" y2="120.933" gradientUnits="userSpaceOnUse">
<stop stop-color="#E8E8E8"/>
<stop offset="1" stop-color="#727272"/>
</linearGradient>
<linearGradient id="paint15_linear_827_9019" x1="261.447" y1="106.11" x2="261.447" y2="120.932" gradientUnits="userSpaceOnUse">
<stop stop-color="#E8E8E8"/>
<stop offset="1" stop-color="#727272"/>
</linearGradient>
<linearGradient id="paint16_linear_827_9019" x1="255.643" y1="82.7314" x2="255.643" y2="94.6277" gradientUnits="userSpaceOnUse">
<stop stop-color="#E8E8E8"/>
<stop offset="1" stop-color="#727272"/>
</linearGradient>
<linearGradient id="paint17_linear_827_9019" x1="249.839" y1="88.8313" x2="249.839" y2="107.133" gradientUnits="userSpaceOnUse">
<stop stop-color="#E8E8E8"/>
<stop offset="1" stop-color="#727272"/>
</linearGradient>
<linearGradient id="paint18_linear_827_9019" x1="261.447" y1="88.2205" x2="261.447" y2="107.132" gradientUnits="userSpaceOnUse">
<stop stop-color="#E8E8E8"/>
<stop offset="1" stop-color="#727272"/>
</linearGradient>
<linearGradient id="paint19_linear_827_9019" x1="430.152" y1="175.952" x2="430.152" y2="185.144" gradientUnits="userSpaceOnUse">
<stop stop-color="#E8E8E8"/>
<stop offset="1" stop-color="#727272"/>
</linearGradient>
<linearGradient id="paint20_linear_827_9019" x1="425.667" y1="180.665" x2="425.667" y2="194.807" gradientUnits="userSpaceOnUse">
<stop stop-color="#E8E8E8"/>
<stop offset="1" stop-color="#727272"/>
</linearGradient>
<linearGradient id="paint21_linear_827_9019" x1="434.636" y1="180.194" x2="434.636" y2="194.807" gradientUnits="userSpaceOnUse">
<stop stop-color="#E8E8E8"/>
<stop offset="1" stop-color="#727272"/>
</linearGradient>
<linearGradient id="paint22_linear_827_9019" x1="430.152" y1="162.13" x2="430.152" y2="171.322" gradientUnits="userSpaceOnUse">
<stop stop-color="#E8E8E8"/>
<stop offset="1" stop-color="#727272"/>
</linearGradient>
<linearGradient id="paint23_linear_827_9019" x1="425.667" y1="166.843" x2="425.667" y2="180.984" gradientUnits="userSpaceOnUse">
<stop stop-color="#E8E8E8"/>
<stop offset="1" stop-color="#727272"/>
</linearGradient>
<linearGradient id="paint24_linear_827_9019" x1="434.636" y1="166.371" x2="434.636" y2="180.984" gradientUnits="userSpaceOnUse">
<stop stop-color="#E8E8E8"/>
<stop offset="1" stop-color="#727272"/>
</linearGradient>
<linearGradient id="paint25_linear_827_9019" x1="430.152" y1="147.123" x2="430.152" y2="156.315" gradientUnits="userSpaceOnUse">
<stop stop-color="#E8E8E8"/>
<stop offset="1" stop-color="#727272"/>
</linearGradient>
<linearGradient id="paint26_linear_827_9019" x1="425.667" y1="151.836" x2="425.667" y2="165.978" gradientUnits="userSpaceOnUse">
<stop stop-color="#E8E8E8"/>
<stop offset="1" stop-color="#727272"/>
</linearGradient>
<linearGradient id="paint27_linear_827_9019" x1="434.636" y1="151.365" x2="434.636" y2="165.978" gradientUnits="userSpaceOnUse">
<stop stop-color="#E8E8E8"/>
<stop offset="1" stop-color="#727272"/>
</linearGradient>
<linearGradient id="paint28_linear_827_9019" x1="430.152" y1="133.301" x2="430.152" y2="142.493" gradientUnits="userSpaceOnUse">
<stop stop-color="#E8E8E8"/>
<stop offset="1" stop-color="#727272"/>
</linearGradient>
<linearGradient id="paint29_linear_827_9019" x1="425.667" y1="138.014" x2="425.667" y2="152.156" gradientUnits="userSpaceOnUse">
<stop stop-color="#E8E8E8"/>
<stop offset="1" stop-color="#727272"/>
</linearGradient>
<linearGradient id="paint30_linear_827_9019" x1="434.636" y1="137.543" x2="434.636" y2="152.155" gradientUnits="userSpaceOnUse">
<stop stop-color="#E8E8E8"/>
<stop offset="1" stop-color="#727272"/>
</linearGradient>
<linearGradient id="paint31_linear_827_9019" x1="455.206" y1="73.1813" x2="431.773" y2="86.5599" gradientUnits="userSpaceOnUse">
<stop stop-color="#17CE8A" stop-opacity="0.46"/>
<stop offset="1" stop-color="#17CE8A" stop-opacity="0"/>
</linearGradient>
<linearGradient id="paint32_linear_827_9019" x1="430.152" y1="102.498" x2="430.152" y2="111.69" gradientUnits="userSpaceOnUse">
<stop stop-color="#E8E8E8"/>
<stop offset="1" stop-color="#727272"/>
</linearGradient>
<linearGradient id="paint33_linear_827_9019" x1="425.667" y1="107.211" x2="425.667" y2="118.193" gradientUnits="userSpaceOnUse">
<stop stop-color="#E8E8E8"/>
<stop offset="1" stop-color="#727272"/>
</linearGradient>
<linearGradient id="paint34_linear_827_9019" x1="434.636" y1="106.74" x2="434.636" y2="118.193" gradientUnits="userSpaceOnUse">
<stop stop-color="#E8E8E8"/>
<stop offset="1" stop-color="#727272"/>
</linearGradient>
<linearGradient id="paint35_linear_827_9019" x1="430.152" y1="88.676" x2="430.152" y2="97.8679" gradientUnits="userSpaceOnUse">
<stop stop-color="#E8E8E8"/>
<stop offset="1" stop-color="#727272"/>
</linearGradient>
<linearGradient id="paint36_linear_827_9019" x1="425.667" y1="93.3894" x2="425.667" y2="107.531" gradientUnits="userSpaceOnUse">
<stop stop-color="#E8E8E8"/>
<stop offset="1" stop-color="#727272"/>
</linearGradient>
<linearGradient id="paint37_linear_827_9019" x1="434.636" y1="92.9177" x2="434.636" y2="107.53" gradientUnits="userSpaceOnUse">
<stop stop-color="#E8E8E8"/>
<stop offset="1" stop-color="#727272"/>
</linearGradient>
<linearGradient id="paint38_linear_827_9019" x1="374.342" y1="347.225" x2="374.342" y2="362.822" gradientUnits="userSpaceOnUse">
<stop stop-color="#E8E8E8"/>
<stop offset="1" stop-color="#727272"/>
</linearGradient>
<linearGradient id="paint39_linear_827_9019" x1="366.732" y1="355.222" x2="366.732" y2="379.218" gradientUnits="userSpaceOnUse">
<stop stop-color="#E8E8E8"/>
<stop offset="1" stop-color="#727272"/>
</linearGradient>
<linearGradient id="paint40_linear_827_9019" x1="381.951" y1="354.423" x2="381.951" y2="379.218" gradientUnits="userSpaceOnUse">
<stop stop-color="#E8E8E8"/>
<stop offset="1" stop-color="#727272"/>
</linearGradient>
<linearGradient id="paint41_linear_827_9019" x1="374.342" y1="323.772" x2="374.342" y2="339.369" gradientUnits="userSpaceOnUse">
<stop stop-color="#E8E8E8"/>
<stop offset="1" stop-color="#727272"/>
</linearGradient>
<linearGradient id="paint42_linear_827_9019" x1="366.732" y1="331.77" x2="366.732" y2="355.765" gradientUnits="userSpaceOnUse">
<stop stop-color="#E8E8E8"/>
<stop offset="1" stop-color="#727272"/>
</linearGradient>
<linearGradient id="paint43_linear_827_9019" x1="381.951" y1="330.969" x2="381.951" y2="355.765" gradientUnits="userSpaceOnUse">
<stop stop-color="#E8E8E8"/>
<stop offset="1" stop-color="#727272"/>
</linearGradient>
<linearGradient id="paint44_linear_827_9019" x1="374.342" y1="298.309" x2="374.342" y2="313.906" gradientUnits="userSpaceOnUse">
<stop stop-color="#E8E8E8"/>
<stop offset="1" stop-color="#727272"/>
</linearGradient>
<linearGradient id="paint45_linear_827_9019" x1="366.732" y1="306.306" x2="366.732" y2="330.301" gradientUnits="userSpaceOnUse">
<stop stop-color="#E8E8E8"/>
<stop offset="1" stop-color="#727272"/>
</linearGradient>
<linearGradient id="paint46_linear_827_9019" x1="381.951" y1="305.506" x2="381.951" y2="330.301" gradientUnits="userSpaceOnUse">
<stop stop-color="#E8E8E8"/>
<stop offset="1" stop-color="#727272"/>
</linearGradient>
<linearGradient id="paint47_linear_827_9019" x1="374.342" y1="274.855" x2="374.342" y2="290.452" gradientUnits="userSpaceOnUse">
<stop stop-color="#E8E8E8"/>
<stop offset="1" stop-color="#727272"/>
</linearGradient>
<linearGradient id="paint48_linear_827_9019" x1="366.732" y1="282.853" x2="366.732" y2="306.848" gradientUnits="userSpaceOnUse">
<stop stop-color="#E8E8E8"/>
<stop offset="1" stop-color="#727272"/>
</linearGradient>
<linearGradient id="paint49_linear_827_9019" x1="381.951" y1="282.053" x2="381.951" y2="306.848" gradientUnits="userSpaceOnUse">
<stop stop-color="#E8E8E8"/>
<stop offset="1" stop-color="#727272"/>
</linearGradient>
<linearGradient id="paint50_linear_827_9019" x1="416.854" y1="172.842" x2="377.093" y2="195.543" gradientUnits="userSpaceOnUse">
<stop stop-color="#17CE8A" stop-opacity="0.46"/>
<stop offset="1" stop-color="#17CE8A" stop-opacity="0"/>
</linearGradient>
<linearGradient id="paint51_linear_827_9019" x1="374.342" y1="222.588" x2="374.342" y2="238.185" gradientUnits="userSpaceOnUse">
<stop stop-color="#E8E8E8"/>
<stop offset="1" stop-color="#727272"/>
</linearGradient>
<linearGradient id="paint52_linear_827_9019" x1="366.732" y1="230.585" x2="366.732" y2="249.219" gradientUnits="userSpaceOnUse">
<stop stop-color="#E8E8E8"/>
<stop offset="1" stop-color="#727272"/>
</linearGradient>
<linearGradient id="paint53_linear_827_9019" x1="381.951" y1="229.785" x2="381.951" y2="249.219" gradientUnits="userSpaceOnUse">
<stop stop-color="#E8E8E8"/>
<stop offset="1" stop-color="#727272"/>
</linearGradient>
<linearGradient id="paint54_linear_827_9019" x1="374.342" y1="199.135" x2="374.342" y2="214.732" gradientUnits="userSpaceOnUse">
<stop stop-color="#E8E8E8"/>
<stop offset="1" stop-color="#727272"/>
</linearGradient>
<linearGradient id="paint55_linear_827_9019" x1="366.732" y1="207.132" x2="366.732" y2="231.127" gradientUnits="userSpaceOnUse">
<stop stop-color="#E8E8E8"/>
<stop offset="1" stop-color="#727272"/>
</linearGradient>
<linearGradient id="paint56_linear_827_9019" x1="381.951" y1="206.332" x2="381.951" y2="231.127" gradientUnits="userSpaceOnUse">
<stop stop-color="#E8E8E8"/>
<stop offset="1" stop-color="#727272"/>
</linearGradient>
<linearGradient id="paint57_linear_827_9019" x1="153.407" y1="375.112" x2="153.407" y2="395.264" gradientUnits="userSpaceOnUse">
<stop stop-color="#E8E8E8"/>
<stop offset="1" stop-color="#727272"/>
</linearGradient>
<linearGradient id="paint58_linear_827_9019" x1="143.575" y1="385.444" x2="143.575" y2="416.447" gradientUnits="userSpaceOnUse">
<stop stop-color="#E8E8E8"/>
<stop offset="1" stop-color="#727272"/>
</linearGradient>
<linearGradient id="paint59_linear_827_9019" x1="163.238" y1="384.412" x2="163.238" y2="416.448" gradientUnits="userSpaceOnUse">
<stop stop-color="#E8E8E8"/>
<stop offset="1" stop-color="#727272"/>
</linearGradient>
<linearGradient id="paint60_linear_827_9019" x1="153.407" y1="344.81" x2="153.407" y2="364.962" gradientUnits="userSpaceOnUse">
<stop stop-color="#E8E8E8"/>
<stop offset="1" stop-color="#727272"/>
</linearGradient>
<linearGradient id="paint61_linear_827_9019" x1="143.575" y1="355.143" x2="143.575" y2="386.145" gradientUnits="userSpaceOnUse">
<stop stop-color="#E8E8E8"/>
<stop offset="1" stop-color="#727272"/>
</linearGradient>
<linearGradient id="paint62_linear_827_9019" x1="163.238" y1="354.109" x2="163.238" y2="386.145" gradientUnits="userSpaceOnUse">
<stop stop-color="#E8E8E8"/>
<stop offset="1" stop-color="#727272"/>
</linearGradient>
<linearGradient id="paint63_linear_827_9019" x1="153.407" y1="311.91" x2="153.407" y2="332.062" gradientUnits="userSpaceOnUse">
<stop stop-color="#E8E8E8"/>
<stop offset="1" stop-color="#727272"/>
</linearGradient>
<linearGradient id="paint64_linear_827_9019" x1="143.575" y1="322.244" x2="143.575" y2="353.246" gradientUnits="userSpaceOnUse">
<stop stop-color="#E8E8E8"/>
<stop offset="1" stop-color="#727272"/>
</linearGradient>
<linearGradient id="paint65_linear_827_9019" x1="163.238" y1="321.21" x2="163.238" y2="353.246" gradientUnits="userSpaceOnUse">
<stop stop-color="#E8E8E8"/>
<stop offset="1" stop-color="#727272"/>
</linearGradient>
<linearGradient id="paint66_linear_827_9019" x1="153.407" y1="281.608" x2="153.407" y2="301.76" gradientUnits="userSpaceOnUse">
<stop stop-color="#E8E8E8"/>
<stop offset="1" stop-color="#727272"/>
</linearGradient>
<linearGradient id="paint67_linear_827_9019" x1="143.575" y1="291.94" x2="143.575" y2="322.943" gradientUnits="userSpaceOnUse">
<stop stop-color="#E8E8E8"/>
<stop offset="1" stop-color="#727272"/>
</linearGradient>
<linearGradient id="paint68_linear_827_9019" x1="163.238" y1="290.908" x2="163.238" y2="322.944" gradientUnits="userSpaceOnUse">
<stop stop-color="#E8E8E8"/>
<stop offset="1" stop-color="#727272"/>
</linearGradient>
<linearGradient id="paint69_linear_827_9019" x1="208.334" y1="149.803" x2="156.96" y2="179.133" gradientUnits="userSpaceOnUse">
<stop stop-color="#17CE8A" stop-opacity="0.46"/>
<stop offset="1" stop-color="#17CE8A" stop-opacity="0"/>
</linearGradient>
<linearGradient id="paint70_linear_827_9019" x1="153.407" y1="214.078" x2="153.407" y2="234.23" gradientUnits="userSpaceOnUse">
<stop stop-color="#E8E8E8"/>
<stop offset="1" stop-color="#727272"/>
</linearGradient>
<linearGradient id="paint71_linear_827_9019" x1="143.575" y1="224.41" x2="143.575" y2="248.485" gradientUnits="userSpaceOnUse">
<stop stop-color="#E8E8E8"/>
<stop offset="1" stop-color="#727272"/>
</linearGradient>
<linearGradient id="paint72_linear_827_9019" x1="163.238" y1="223.377" x2="163.238" y2="248.486" gradientUnits="userSpaceOnUse">
<stop stop-color="#E8E8E8"/>
<stop offset="1" stop-color="#727272"/>
</linearGradient>
<linearGradient id="paint73_linear_827_9019" x1="153.407" y1="183.775" x2="153.407" y2="203.927" gradientUnits="userSpaceOnUse">
<stop stop-color="#E8E8E8"/>
<stop offset="1" stop-color="#727272"/>
</linearGradient>
<linearGradient id="paint74_linear_827_9019" x1="143.575" y1="194.109" x2="143.575" y2="225.111" gradientUnits="userSpaceOnUse">
<stop stop-color="#E8E8E8"/>
<stop offset="1" stop-color="#727272"/>
</linearGradient>
<linearGradient id="paint75_linear_827_9019" x1="163.238" y1="193.075" x2="163.238" y2="225.111" gradientUnits="userSpaceOnUse">
<stop stop-color="#E8E8E8"/>
<stop offset="1" stop-color="#727272"/>
</linearGradient>
</defs>
</svg>
