<svg xmlns="http://www.w3.org/2000/svg" width="573" height="300" viewBox="0 0 573 300" fill="none"><g opacity="0.4"><path fill-rule="evenodd" clip-rule="evenodd" d="M85.2058 64.4451V45.2587C85.2058 45.2587 120.556 29.4822 120.836 29.6186L155.804 45.4178V64.5815C155.804 64.5815 155.88 64.8997 155.6 65.0361L121.116 82.7449C120.861 82.8813 120.428 82.8813 120.173 82.7449L85.3842 64.877C85.1294 64.7406 85.2058 64.4451 85.2058 64.4451Z" fill="#EDEDED"></path><path fill-rule="evenodd" clip-rule="evenodd" d="M85.3842 44.9407L119.868 27.2319C120.122 27.0955 120.556 27.0955 120.811 27.2319L155.574 45.0999C155.829 45.2362 155.829 45.4636 155.574 45.6L121.116 63.286C120.862 63.4224 120.428 63.4224 120.173 63.286L85.3842 45.4408C85.1294 45.3044 85.1294 45.0771 85.3842 44.9407Z" fill="#F3F3F3"></path><path fill-rule="evenodd" clip-rule="evenodd" d="M121.026 63.3705L120.522 82.8503C120.369 82.8503 120.185 82.8752 120.057 82.8298L85.2937 64.9618C85.0389 64.8254 85.0898 64.5072 85.0898 64.5072V45.3435L121.026 63.3705Z" fill="#E3E3E3"></path><path fill-rule="evenodd" clip-rule="evenodd" d="M128.749 66.1796L150.372 55.3738V67.7169L128.749 78.8265V66.1796Z" fill="#C4C4C4" fill-opacity="0.6"></path><path fill-rule="evenodd" clip-rule="evenodd" d="M150.372 67.6327L138.313 61.4381L150.372 55.3738V67.6327Z" fill="#797B84" fill-opacity="0.5"></path><path opacity="0.4" d="M57.5064 80.9881L85.1473 64.8455L120.522 82.8502L92.8809 98.4635L57.5064 80.9881Z" fill="url(#paint0_linear_812_8873)"></path><path d="M136.982 67.7864L144.259 64.0715L151.12 67.4149L144.051 71.3154L136.982 67.7864Z" fill="url(#paint1_linear_812_8873)"></path><path d="M136.982 67.7866V75.2163L144.051 78.9311V71.3157L136.982 67.7866Z" fill="url(#paint2_linear_812_8873)"></path><path d="M144.051 71.3156L151.12 67.415V75.0676L144.051 78.931V71.3156Z" fill="url(#paint3_linear_812_8873)"></path><g opacity="0.8"><path d="M147.588 73.3799L154.685 69.7571L161.377 73.0176L154.482 76.8216L147.588 73.3799Z" fill="url(#paint4_linear_812_8873)"></path><path d="M147.588 73.3799V80.6256L154.482 84.2484V76.8216L147.588 73.3799Z" fill="url(#paint5_linear_812_8873)"></path><path d="M154.482 76.8216L161.377 73.0176V80.4806L154.482 84.2484V76.8216Z" fill="url(#paint6_linear_812_8873)"></path></g><g opacity="0.6"><path d="M157.664 78.5911L164.761 74.9683L171.453 78.2288L164.559 82.0328L157.664 78.5911Z" fill="url(#paint7_linear_812_8873)"></path><path d="M157.664 78.5911V85.8367L164.559 89.4596V82.0328L157.664 78.5911Z" fill="url(#paint8_linear_812_8873)"></path><path d="M164.559 82.0327L171.453 78.2288V85.6918L164.559 89.4596V82.0327Z" fill="url(#paint9_linear_812_8873)"></path></g><g opacity="0.4"><path d="M167.741 83.8023L174.838 80.1794L181.529 83.44L174.635 87.244L167.741 83.8023Z" fill="url(#paint10_linear_812_8873)"></path><path d="M167.741 83.8027V91.0484L174.635 94.6713V87.2444L167.741 83.8027Z" fill="url(#paint11_linear_812_8873)"></path><path d="M174.635 87.2444L181.529 83.4404V90.9035L174.635 94.6712V87.2444Z" fill="url(#paint12_linear_812_8873)"></path></g><g opacity="0.2"><path d="M177.817 89.014L184.914 85.3911L191.605 88.6517L184.711 92.4556L177.817 89.014Z" fill="url(#paint13_linear_812_8873)"></path><path d="M177.817 89.0139V96.2596L184.711 99.8824V92.4556L177.817 89.0139Z" fill="url(#paint14_linear_812_8873)"></path><path d="M184.711 92.4553L191.605 88.6514V96.1144L184.711 99.8822V92.4553Z" fill="url(#paint15_linear_812_8873)"></path></g><g opacity="0.1"><path d="M187.893 94.2251L194.99 90.6023L201.681 93.8628L194.787 97.6668L187.893 94.2251Z" fill="url(#paint16_linear_812_8873)"></path><path d="M187.893 94.2249V101.471L194.787 105.093V97.6666L187.893 94.2249Z" fill="url(#paint17_linear_812_8873)"></path><path d="M194.787 97.6665L201.681 93.8625V101.326L194.787 105.093V97.6665Z" fill="url(#paint18_linear_812_8873)"></path></g></g><g opacity="0.4"><path fill-rule="evenodd" clip-rule="evenodd" d="M27.6994 92.1514V72.965C27.6994 72.965 63.0492 57.1885 63.3296 57.3249L98.2971 73.1241V92.2878C98.2971 92.2878 98.3736 92.606 98.0932 92.7424L63.6099 110.451C63.3551 110.588 62.9218 110.588 62.6669 110.451L27.8778 92.5833C27.6229 92.4469 27.6994 92.1514 27.6994 92.1514Z" fill="#EDEDED"></path><path fill-rule="evenodd" clip-rule="evenodd" d="M27.8778 72.647L62.3611 54.9382C62.616 54.8018 63.0492 54.8018 63.3041 54.9382L98.0677 72.8062C98.3226 72.9425 98.3226 73.1699 98.0677 73.3063L63.6099 90.9923C63.3551 91.1287 62.9218 91.1287 62.6669 90.9923L27.8778 73.1471C27.6229 73.0107 27.6229 72.7834 27.8778 72.647Z" fill="#F3F3F3"></path><path fill-rule="evenodd" clip-rule="evenodd" d="M63.5194 91.0768L63.0153 110.557C62.8624 110.557 62.6784 110.582 62.5509 110.536L27.7873 92.6681C27.5324 92.5317 27.5834 92.2135 27.5834 92.2135V73.0498L63.5194 91.0768Z" fill="#E3E3E3"></path><path fill-rule="evenodd" clip-rule="evenodd" d="M71.2422 93.8859L92.8658 83.0801V95.4232L71.2422 106.533V93.8859Z" fill="#C4C4C4" fill-opacity="0.6"></path><path fill-rule="evenodd" clip-rule="evenodd" d="M92.8658 95.339L80.8065 89.1444L92.8658 83.0801V95.339Z" fill="#797B84" fill-opacity="0.5"></path><path opacity="0.4" d="M0 108.695L27.6409 92.5525L63.0153 110.557L35.3744 126.171L0 108.695Z" fill="url(#paint19_linear_812_8873)"></path><path d="M79.4754 95.4927L86.7526 91.7778L93.6139 95.1212L86.5447 99.0217L79.4754 95.4927Z" fill="url(#paint20_linear_812_8873)"></path><path d="M79.4754 95.4924V102.922L86.5447 106.637V99.0215L79.4754 95.4924Z" fill="url(#paint21_linear_812_8873)"></path><path d="M86.5448 99.0219L93.614 95.1213V102.774L86.5448 106.637V99.0219Z" fill="url(#paint22_linear_812_8873)"></path><g opacity="0.8"><path d="M90.082 101.086L97.179 97.4634L103.87 100.724L96.9762 104.528L90.082 101.086Z" fill="url(#paint23_linear_812_8873)"></path><path d="M90.082 101.086V108.332L96.9762 111.955V104.528L90.082 101.086Z" fill="url(#paint24_linear_812_8873)"></path><path d="M96.9761 104.528L103.87 100.724V108.187L96.9761 111.955V104.528Z" fill="url(#paint25_linear_812_8873)"></path></g><g opacity="0.6"><path d="M100.158 106.297L107.255 102.674L113.947 105.935L107.052 109.739L100.158 106.297Z" fill="url(#paint26_linear_812_8873)"></path><path d="M100.158 106.297V113.543L107.052 117.165V109.739L100.158 106.297Z" fill="url(#paint27_linear_812_8873)"></path><path d="M107.052 109.738L113.947 105.934V113.397L107.052 117.165V109.738Z" fill="url(#paint28_linear_812_8873)"></path></g><g opacity="0.4"><path d="M110.234 111.509L117.331 107.886L124.023 111.146L117.128 114.95L110.234 111.509Z" fill="url(#paint29_linear_812_8873)"></path><path d="M110.234 111.509V118.755L117.128 122.378V114.951L110.234 111.509Z" fill="url(#paint30_linear_812_8873)"></path><path d="M117.128 114.951L124.023 111.147V118.61L117.128 122.378V114.951Z" fill="url(#paint31_linear_812_8873)"></path></g><g opacity="0.2"><path d="M120.31 116.72L127.407 113.097L134.099 116.357L127.205 120.161L120.31 116.72Z" fill="url(#paint32_linear_812_8873)"></path><path d="M120.31 116.72V123.966L127.205 127.589V120.162L120.31 116.72Z" fill="url(#paint33_linear_812_8873)"></path><path d="M127.205 120.162L134.099 116.358V123.821L127.205 127.588V120.162Z" fill="url(#paint34_linear_812_8873)"></path></g><g opacity="0.1"><path d="M130.387 121.931L137.484 118.309L144.175 121.569L137.281 125.373L130.387 121.931Z" fill="url(#paint35_linear_812_8873)"></path><path d="M130.387 121.932V129.178L137.281 132.8V125.374L130.387 121.932Z" fill="url(#paint36_linear_812_8873)"></path><path d="M137.281 125.373L144.175 121.569V129.032L137.281 132.8V125.373Z" fill="url(#paint37_linear_812_8873)"></path></g></g><g opacity="0.4"><path fill-rule="evenodd" clip-rule="evenodd" d="M148.528 37.3154V18.129C148.528 18.129 183.878 2.35252 184.158 2.48892L219.126 18.2882V37.4518C219.126 37.4518 219.202 37.7701 218.922 37.9065L184.438 55.6153C184.184 55.7517 183.75 55.7517 183.495 55.6153L148.706 37.7474C148.451 37.611 148.528 37.3154 148.528 37.3154Z" fill="#EDEDED"></path><path fill-rule="evenodd" clip-rule="evenodd" d="M148.706 17.8111L183.19 0.102297C183.445 -0.0340991 183.878 -0.0340991 184.133 0.102297L218.896 17.9702C219.151 18.1066 219.151 18.3339 218.896 18.4703L184.438 36.1564C184.184 36.2928 183.75 36.2928 183.495 36.1564L148.706 18.3112C148.451 18.1748 148.451 17.9475 148.706 17.8111Z" fill="#F3F3F3"></path><path fill-rule="evenodd" clip-rule="evenodd" d="M184.348 36.2409L183.844 55.7206C183.691 55.7206 183.507 55.7456 183.379 55.7001L148.616 37.8322C148.361 37.6958 148.412 37.3775 148.412 37.3775V18.2139L184.348 36.2409Z" fill="#E3E3E3"></path><path fill-rule="evenodd" clip-rule="evenodd" d="M192.071 39.05L213.694 28.2441V40.5873L192.071 51.6968V39.05Z" fill="#C4C4C4" fill-opacity="0.6"></path><path fill-rule="evenodd" clip-rule="evenodd" d="M213.694 40.503L201.635 34.3085L213.694 28.2441V40.503Z" fill="#797B84" fill-opacity="0.5"></path><path opacity="0.4" d="M120.828 53.8592L148.469 37.7166L183.844 55.7213L156.203 71.3346L120.828 53.8592Z" fill="url(#paint38_linear_812_8873)"></path><path d="M200.304 40.6567L207.581 36.9419L214.442 40.2852L207.373 44.1858L200.304 40.6567Z" fill="url(#paint39_linear_812_8873)"></path><path d="M200.304 40.6565V48.0861L207.373 51.801V44.1856L200.304 40.6565Z" fill="url(#paint40_linear_812_8873)"></path><path d="M207.373 44.186L214.442 40.2854V47.9379L207.373 51.8013V44.186Z" fill="url(#paint41_linear_812_8873)"></path><g opacity="0.8"><path d="M210.91 46.2498L218.007 42.627L224.699 45.8875L217.805 49.6915L210.91 46.2498Z" fill="url(#paint42_linear_812_8873)"></path><path d="M210.91 46.2502V53.4959L217.805 57.1188V49.6919L210.91 46.2502Z" fill="url(#paint43_linear_812_8873)"></path><path d="M217.805 49.6919L224.699 45.8879V53.351L217.805 57.1187V49.6919Z" fill="url(#paint44_linear_812_8873)"></path></g><g opacity="0.6"><path d="M220.986 51.4615L228.083 47.8386L234.775 51.0992L227.881 54.9032L220.986 51.4615Z" fill="url(#paint45_linear_812_8873)"></path><path d="M220.986 51.4614V58.7071L227.881 62.3299V54.9031L220.986 51.4614Z" fill="url(#paint46_linear_812_8873)"></path><path d="M227.881 54.9029L234.775 51.0989V58.5619L227.881 62.3297V54.9029Z" fill="url(#paint47_linear_812_8873)"></path></g><g opacity="0.4"><path d="M231.063 56.6726L238.16 53.0498L244.851 56.3104L237.957 60.1143L231.063 56.6726Z" fill="url(#paint48_linear_812_8873)"></path><path d="M231.063 56.6731V63.9188L237.957 67.5416V60.1148L231.063 56.6731Z" fill="url(#paint49_linear_812_8873)"></path><path d="M237.957 60.1145L244.851 56.3105V63.7736L237.957 67.5413V60.1145Z" fill="url(#paint50_linear_812_8873)"></path></g><g opacity="0.2"><path d="M241.139 61.8843L248.236 58.2615L254.927 61.522L248.033 65.326L241.139 61.8843Z" fill="url(#paint51_linear_812_8873)"></path><path d="M241.139 61.8843V69.13L248.033 72.7528V65.326L241.139 61.8843Z" fill="url(#paint52_linear_812_8873)"></path><path d="M248.033 65.3257L254.927 61.5217V68.9848L248.033 72.7525V65.3257Z" fill="url(#paint53_linear_812_8873)"></path></g><g opacity="0.1"><path d="M251.215 67.0955L258.312 63.4727L265.003 66.7332L258.109 70.5372L251.215 67.0955Z" fill="url(#paint54_linear_812_8873)"></path><path d="M251.215 67.0952V74.3409L258.109 77.9637V70.5369L251.215 67.0952Z" fill="url(#paint55_linear_812_8873)"></path><path d="M258.109 70.5369L265.003 66.7329V74.196L258.109 77.9637V70.5369Z" fill="url(#paint56_linear_812_8873)"></path></g></g><path fill-rule="evenodd" clip-rule="evenodd" d="M371.319 90.778V60.4974C371.319 60.4974 427.11 35.5984 427.552 35.8136L482.739 60.7485V90.9933C482.739 90.9933 482.86 91.4955 482.417 91.7108L427.995 119.659C427.592 119.875 426.909 119.875 426.506 119.659L371.601 91.4597C371.199 91.2444 371.319 90.778 371.319 90.778Z" fill="#EDEDED"></path><path fill-rule="evenodd" clip-rule="evenodd" d="M371.601 59.995L426.024 32.0465C426.426 31.8312 427.11 31.8312 427.512 32.0465L482.377 60.2462C482.779 60.4615 482.779 60.8202 482.377 61.0355L427.995 88.9482C427.592 89.1635 426.909 89.1635 426.506 88.9482L371.601 60.7843C371.199 60.5691 371.199 60.2103 371.601 59.995Z" fill="#F3F3F3"></path><path fill-rule="evenodd" clip-rule="evenodd" d="M427.852 89.0817L427.056 119.825C426.815 119.825 426.524 119.865 426.323 119.793L371.458 91.5931C371.056 91.3779 371.136 90.8756 371.136 90.8756V60.6309L427.852 89.0817Z" fill="#E3E3E3"></path><path fill-rule="evenodd" clip-rule="evenodd" d="M440.04 93.5146L474.167 76.4604V95.9408L440.04 113.474V93.5146Z" fill="#C4C4C4" fill-opacity="0.6"></path><path fill-rule="evenodd" clip-rule="evenodd" d="M474.167 95.8079L455.135 86.0314L474.167 76.4604V95.8079Z" fill="#797B84" fill-opacity="0.5"></path><path d="M448.965 96.0682L460.121 90.2053L471.278 95.775L460.121 101.638L448.965 96.0682Z" fill="#06AFFF"></path><path d="M448.965 96.0681V107.794L460.121 113.657V101.638L448.965 96.0681Z" fill="#2F80ED"></path><path d="M460.121 101.638L471.278 95.7751V107.559L460.121 113.657V101.638Z" fill="#3C8AFE"></path><path d="M464.867 105.04L476.352 99.1775L487.181 104.454L476.024 110.61L464.867 105.04Z" fill="#42E7AA"></path><path d="M464.867 105.04V116.766L476.024 122.629V110.61L464.867 105.04Z" fill="#16A568"></path><path d="M476.024 110.61L487.181 104.454V116.531L476.024 122.628V110.61Z" fill="#17CE8A"></path><path d="M481.607 113.265L493.092 107.402L503.92 112.679L492.763 118.835L481.607 113.265Z" fill="#FFEE50"></path><path d="M481.607 113.265V124.99L492.763 130.853V118.834L481.607 113.265Z" fill="#CCBA11"></path><path d="M492.763 118.835L503.92 112.679V124.756L492.763 130.854V118.835Z" fill="#FFD215"></path><path d="M497.509 121.49L508.994 115.627L519.823 120.904L508.666 127.06L497.509 121.49Z" fill="#F67C7C"></path><path d="M497.509 121.49V133.215L508.666 139.078V127.059L497.509 121.49Z" fill="#DE2424"></path><path d="M508.666 127.059L519.823 120.903V132.981L508.666 139.078V127.059Z" fill="#F32626"></path><path opacity="0.4" d="M327.603 116.886L371.227 91.4094L427.056 119.825L383.432 144.467L327.603 116.886Z" fill="url(#paint57_linear_812_8873)"></path><g opacity="0.8"><path d="M514.248 129.569L525.449 123.851L536.01 128.997L525.129 135.001L514.248 129.569Z" fill="url(#paint58_linear_812_8873)"></path><path d="M514.248 129.569V141.005L525.129 146.722V135.001L514.248 129.569Z" fill="url(#paint59_linear_812_8873)"></path><path d="M525.129 135.001L536.01 128.998V140.776L525.129 146.722V135.001Z" fill="url(#paint60_linear_812_8873)"></path></g><g opacity="0.6"><path d="M530.151 137.794L541.352 132.076L551.912 137.222L541.032 143.225L530.151 137.794Z" fill="url(#paint61_linear_812_8873)"></path><path d="M530.151 137.794V149.229L541.032 154.947V143.225L530.151 137.794Z" fill="url(#paint62_linear_812_8873)"></path><path d="M541.032 143.225L551.912 137.222V149L541.032 154.947V143.225Z" fill="url(#paint63_linear_812_8873)"></path></g><g opacity="0.4"><path d="M546.054 146.018L557.254 140.301L567.815 145.447L556.934 151.45L546.054 146.018Z" fill="url(#paint64_linear_812_8873)"></path><path d="M546.054 146.019V157.454L556.934 163.172V151.45L546.054 146.019Z" fill="url(#paint65_linear_812_8873)"></path><path d="M556.934 151.451L567.815 145.447V157.225L556.934 163.172V151.451Z" fill="url(#paint66_linear_812_8873)"></path></g><g opacity="0.2"><path d="M561.956 154.243L573.157 148.525L583.717 153.671L572.837 159.675L561.956 154.243Z" fill="url(#paint67_linear_812_8873)"></path><path d="M561.956 154.243V165.679L572.837 171.396V159.675L561.956 154.243Z" fill="url(#paint68_linear_812_8873)"></path><path d="M572.837 159.675L583.717 153.671V165.45L572.837 171.396V159.675Z" fill="url(#paint69_linear_812_8873)"></path></g><path fill-rule="evenodd" clip-rule="evenodd" d="M194.838 140.491V90.4161C194.838 90.4161 287.098 49.2405 287.83 49.5965L379.093 90.8314V140.847C379.093 140.847 379.292 141.678 378.561 142.034L288.562 188.252C287.897 188.608 286.766 188.608 286.101 188.252L195.304 141.618C194.638 141.263 194.838 140.491 194.838 140.491Z" fill="#EDEDED"></path><path fill-rule="evenodd" clip-rule="evenodd" d="M195.304 89.5855L285.302 43.3668C285.968 43.0109 287.098 43.0109 287.764 43.3668L378.494 90.0008C379.159 90.3568 379.159 90.9501 378.494 91.3061L288.562 137.465C287.897 137.821 286.766 137.821 286.101 137.465L195.304 90.8908C194.638 90.5348 194.638 89.9415 195.304 89.5855Z" fill="#F3F3F3"></path><path fill-rule="evenodd" clip-rule="evenodd" d="M288.326 137.686L287.01 188.527C286.611 188.527 286.131 188.592 285.798 188.474L195.067 141.84C194.402 141.484 194.535 140.653 194.535 140.653V90.6372L288.326 137.686Z" fill="#E3E3E3"></path><path fill-rule="evenodd" clip-rule="evenodd" d="M308.482 145.017L364.918 116.815V149.029L308.482 178.025V145.017Z" fill="#C4C4C4" fill-opacity="0.6"></path><path fill-rule="evenodd" clip-rule="evenodd" d="M364.918 148.81L333.444 132.642L364.918 116.815V148.81Z" fill="#797B84" fill-opacity="0.5"></path><path d="M323.676 147.81L342.669 138.115L360.576 146.84L342.126 157.021L323.676 147.81Z" fill="#42E7AA"></path><path d="M323.676 147.81V167.201L342.126 176.896V157.02L323.676 147.81Z" fill="#16A568"></path><path d="M342.126 157.02L360.576 146.84V166.813L342.126 176.896V157.02Z" fill="#17CE8A"></path><path d="M349.723 162.353L368.716 152.658L386.624 161.384L368.174 171.564L349.723 162.353Z" fill="#FFEE50"></path><path d="M349.723 162.353V181.744L368.174 191.44V171.564L349.723 162.353Z" fill="#CCBA11"></path><path d="M368.174 171.564L386.624 161.384V181.356L368.174 191.439V171.564Z" fill="#FFD215"></path><path d="M376.856 175.927L395.849 166.231L413.756 174.957L395.306 185.137L376.856 175.927Z" fill="#F67C7C"></path><path d="M376.856 175.927V195.317L395.306 205.013V185.137L376.856 175.927Z" fill="#DE2424"></path><path d="M395.306 185.137L413.756 174.957V194.93L395.306 205.013V185.137Z" fill="#F32626"></path><path d="M403.989 190.47L422.439 180.774L440.889 189.985L422.439 199.68L403.989 190.47Z" fill="#06AFFF"></path><path d="M403.989 190.469V209.86L422.439 219.556V199.68L403.989 190.469Z" fill="#2F80ED"></path><path d="M422.439 199.681L440.889 189.985V209.473L422.439 219.556V199.681Z" fill="#3C8AFE"></path><g opacity="0.8"><path d="M431.388 205.796L449.836 196.378L467.23 204.854L449.309 214.742L431.388 205.796Z" fill="url(#paint70_linear_812_8873)"></path><path d="M431.388 205.795V224.63L449.309 234.047V214.742L431.388 205.795Z" fill="url(#paint71_linear_812_8873)"></path><path d="M449.309 214.742L467.23 204.854V224.253L449.309 234.047V214.742Z" fill="url(#paint72_linear_812_8873)"></path></g><g opacity="0.6"><path d="M457.58 219.341L476.029 209.924L493.423 218.4L475.501 228.288L457.58 219.341Z" fill="url(#paint73_linear_812_8873)"></path><path d="M457.58 219.341V238.176L475.501 247.593V228.288L457.58 219.341Z" fill="url(#paint74_linear_812_8873)"></path><path d="M475.501 228.288L493.422 218.399V237.799L475.501 247.593V228.288Z" fill="url(#paint75_linear_812_8873)"></path></g><g opacity="0.4"><path d="M483.773 232.888L502.221 223.471L519.615 231.946L501.694 241.835L483.773 232.888Z" fill="url(#paint76_linear_812_8873)"></path><path d="M483.773 232.888V251.722L501.694 261.14V241.834L483.773 232.888Z" fill="url(#paint77_linear_812_8873)"></path><path d="M501.694 241.835L519.615 231.947V251.346L501.694 261.14V241.835Z" fill="url(#paint78_linear_812_8873)"></path></g><g opacity="0.2"><path d="M509.965 246.434L528.413 237.017L545.807 245.493L527.886 255.381L509.965 246.434Z" fill="url(#paint79_linear_812_8873)"></path><path d="M509.965 246.434V265.269L527.886 274.686V255.381L509.965 246.434Z" fill="url(#paint80_linear_812_8873)"></path><path d="M527.886 255.381L545.807 245.493V264.893L527.886 274.687V255.381Z" fill="url(#paint81_linear_812_8873)"></path></g><g opacity="0.1"><path d="M536.158 259.981L554.606 250.564L572 259.039L554.079 268.928L536.158 259.981Z" fill="url(#paint82_linear_812_8873)"></path><path d="M536.158 259.981V278.815L554.079 288.233V268.927L536.158 259.981Z" fill="url(#paint83_linear_812_8873)"></path><path d="M554.079 268.928L572 259.04V278.439L554.079 288.233V268.928Z" fill="url(#paint84_linear_812_8873)"></path></g><path opacity="0.4" d="M122.545 183.667L194.685 141.536L287.01 188.527L214.869 229.276L122.545 183.667Z" fill="url(#paint85_linear_812_8873)"></path><path fill-rule="evenodd" clip-rule="evenodd" d="M111.02 211.156V180.876C111.02 180.876 166.811 155.977 167.253 156.192L222.44 181.127V211.372C222.44 211.372 222.561 211.874 222.118 212.089L167.696 240.038C167.293 240.253 166.609 240.253 166.207 240.038L111.302 211.838C110.9 211.623 111.02 211.156 111.02 211.156Z" fill="#EDEDED"></path><path fill-rule="evenodd" clip-rule="evenodd" d="M111.302 180.373L165.725 152.425C166.127 152.21 166.811 152.21 167.213 152.425L222.078 180.625C222.48 180.84 222.48 181.199 222.078 181.414L167.696 209.327C167.293 209.542 166.61 209.542 166.207 209.327L111.302 181.163C110.9 180.948 110.9 180.589 111.302 180.373Z" fill="#F3F3F3"></path><path fill-rule="evenodd" clip-rule="evenodd" d="M167.553 209.46L166.757 240.204C166.516 240.204 166.225 240.243 166.024 240.171L111.159 211.972C110.757 211.756 110.837 211.254 110.837 211.254V181.009L167.553 209.46Z" fill="#E3E3E3"></path><path fill-rule="evenodd" clip-rule="evenodd" d="M179.741 213.893L213.868 196.839V216.319L179.741 233.853V213.893Z" fill="#C4C4C4" fill-opacity="0.6"></path><path fill-rule="evenodd" clip-rule="evenodd" d="M213.868 216.186L194.836 206.41L213.868 196.839V216.186Z" fill="#797B84" fill-opacity="0.5"></path><path d="M188.665 216.447L200.151 210.584L210.979 215.86L199.822 222.016L188.665 216.447Z" fill="#F67C7C"></path><path d="M188.665 216.447V228.172L199.822 234.035V222.016L188.665 216.447Z" fill="#DE2424"></path><path d="M199.822 222.016L210.979 215.86V227.937L199.822 234.035V222.016Z" fill="#F32626"></path><path d="M205.405 224.672L216.562 218.809L227.719 224.379L216.562 230.241L205.405 224.672Z" fill="#06AFFF"></path><path d="M205.405 224.671V236.397L216.562 242.26V230.241L205.405 224.671Z" fill="#2F80ED"></path><path d="M216.562 230.241L227.719 224.378V236.163L216.562 242.26V230.241Z" fill="#3C8AFE"></path><path d="M221.308 232.896L232.793 227.033L243.621 232.31L232.465 238.466L221.308 232.896Z" fill="#42E7AA"></path><path d="M221.308 232.896V244.622L232.465 250.485V238.466L221.308 232.896Z" fill="#16A568"></path><path d="M232.465 238.466L243.621 232.31V244.388L232.465 250.485V238.466Z" fill="#17CE8A"></path><path d="M237.21 241.12L248.695 235.257L259.524 240.534L248.367 246.69L237.21 241.12Z" fill="#FFEE50"></path><path d="M237.21 241.12V252.846L248.367 258.708V246.69L237.21 241.12Z" fill="#CCBA11"></path><path d="M248.367 246.69L259.524 240.534V252.611L248.367 258.709V246.69Z" fill="#FFD215"></path><path opacity="0.4" d="M67.3043 237.265L110.928 211.788L166.757 240.204L123.133 264.845L67.3043 237.265Z" fill="url(#paint86_linear_812_8873)"></path><g opacity="0.8"><path d="M253.95 249.947L265.15 244.23L275.711 249.376L264.83 255.379L253.95 249.947Z" fill="url(#paint87_linear_812_8873)"></path><path d="M253.95 249.948V261.383L264.83 267.101V255.38L253.95 249.948Z" fill="url(#paint88_linear_812_8873)"></path><path d="M264.83 255.38L275.711 249.376V261.154L264.83 267.101V255.38Z" fill="url(#paint89_linear_812_8873)"></path></g><g opacity="0.6"><path d="M269.852 258.173L281.053 252.455L291.613 257.601L280.733 263.604L269.852 258.173Z" fill="url(#paint90_linear_812_8873)"></path><path d="M269.852 258.173V269.608L280.733 275.326V263.604L269.852 258.173Z" fill="url(#paint91_linear_812_8873)"></path><path d="M280.733 263.604L291.613 257.601V269.379L280.733 275.326V263.604Z" fill="url(#paint92_linear_812_8873)"></path></g><g opacity="0.4"><path d="M285.755 266.397L296.955 260.679L307.516 265.825L296.635 271.829L285.755 266.397Z" fill="url(#paint93_linear_812_8873)"></path><path d="M285.755 266.397V277.832L296.635 283.55V271.829L285.755 266.397Z" fill="url(#paint94_linear_812_8873)"></path><path d="M296.635 271.829L307.516 265.825V277.604L296.635 283.55V271.829Z" fill="url(#paint95_linear_812_8873)"></path></g><g opacity="0.2"><path d="M301.657 274.622L312.858 268.904L323.418 274.05L312.538 280.054L301.657 274.622Z" fill="url(#paint96_linear_812_8873)"></path><path d="M301.657 274.622V286.057L312.538 291.775V280.053L301.657 274.622Z" fill="url(#paint97_linear_812_8873)"></path><path d="M312.538 280.054L323.418 274.05V285.829L312.538 291.775V280.054Z" fill="url(#paint98_linear_812_8873)"></path></g><g opacity="0.1"><path d="M317.56 282.847L328.76 277.129L339.321 282.275L328.44 288.279L317.56 282.847Z" fill="url(#paint99_linear_812_8873)"></path><path d="M317.56 282.847V294.283L328.44 300V288.279L317.56 282.847Z" fill="url(#paint100_linear_812_8873)"></path><path d="M328.44 288.279L339.321 282.275V294.054L328.44 300V288.279Z" fill="url(#paint101_linear_812_8873)"></path></g><defs><linearGradient id="paint0_linear_812_8873" x1="96.3344" y1="86.9056" x2="103.854" y2="73.357" gradientUnits="userSpaceOnUse"><stop offset="0.132597" stop-color="#C4C4C4" stop-opacity="0"></stop><stop offset="1" stop-color="#484848"></stop></linearGradient><linearGradient id="paint1_linear_812_8873" x1="144.051" y1="64.0715" x2="144.051" y2="71.3165" gradientUnits="userSpaceOnUse"><stop stop-color="#E8E8E8"></stop><stop offset="1" stop-color="#727272"></stop></linearGradient><linearGradient id="paint2_linear_812_8873" x1="140.517" y1="67.7866" x2="140.517" y2="78.9328" gradientUnits="userSpaceOnUse"><stop stop-color="#E8E8E8"></stop><stop offset="1" stop-color="#727272"></stop></linearGradient><linearGradient id="paint3_linear_812_8873" x1="147.586" y1="67.415" x2="147.586" y2="78.9327" gradientUnits="userSpaceOnUse"><stop stop-color="#E8E8E8"></stop><stop offset="1" stop-color="#727272"></stop></linearGradient><linearGradient id="paint4_linear_812_8873" x1="154.483" y1="69.7571" x2="154.483" y2="76.8227" gradientUnits="userSpaceOnUse"><stop stop-color="#E8E8E8"></stop><stop offset="1" stop-color="#727272"></stop></linearGradient><linearGradient id="paint5_linear_812_8873" x1="151.035" y1="73.3799" x2="151.035" y2="84.25" gradientUnits="userSpaceOnUse"><stop stop-color="#E8E8E8"></stop><stop offset="1" stop-color="#727272"></stop></linearGradient><linearGradient id="paint6_linear_812_8873" x1="157.93" y1="73.0176" x2="157.93" y2="84.2501" gradientUnits="userSpaceOnUse"><stop stop-color="#E8E8E8"></stop><stop offset="1" stop-color="#727272"></stop></linearGradient><linearGradient id="paint7_linear_812_8873" x1="164.559" y1="74.9683" x2="164.559" y2="82.0339" gradientUnits="userSpaceOnUse"><stop stop-color="#E8E8E8"></stop><stop offset="1" stop-color="#727272"></stop></linearGradient><linearGradient id="paint8_linear_812_8873" x1="161.112" y1="78.5911" x2="161.112" y2="89.4612" gradientUnits="userSpaceOnUse"><stop stop-color="#E8E8E8"></stop><stop offset="1" stop-color="#727272"></stop></linearGradient><linearGradient id="paint9_linear_812_8873" x1="168.006" y1="78.2288" x2="168.006" y2="89.4613" gradientUnits="userSpaceOnUse"><stop stop-color="#E8E8E8"></stop><stop offset="1" stop-color="#727272"></stop></linearGradient><linearGradient id="paint10_linear_812_8873" x1="174.635" y1="80.1794" x2="174.635" y2="87.245" gradientUnits="userSpaceOnUse"><stop stop-color="#E8E8E8"></stop><stop offset="1" stop-color="#727272"></stop></linearGradient><linearGradient id="paint11_linear_812_8873" x1="171.188" y1="83.8027" x2="171.188" y2="94.6729" gradientUnits="userSpaceOnUse"><stop stop-color="#E8E8E8"></stop><stop offset="1" stop-color="#727272"></stop></linearGradient><linearGradient id="paint12_linear_812_8873" x1="178.082" y1="83.4404" x2="178.082" y2="94.6729" gradientUnits="userSpaceOnUse"><stop stop-color="#E8E8E8"></stop><stop offset="1" stop-color="#727272"></stop></linearGradient><linearGradient id="paint13_linear_812_8873" x1="184.711" y1="85.3911" x2="184.711" y2="92.4567" gradientUnits="userSpaceOnUse"><stop stop-color="#E8E8E8"></stop><stop offset="1" stop-color="#727272"></stop></linearGradient><linearGradient id="paint14_linear_812_8873" x1="181.264" y1="89.0139" x2="181.264" y2="99.8841" gradientUnits="userSpaceOnUse"><stop stop-color="#E8E8E8"></stop><stop offset="1" stop-color="#727272"></stop></linearGradient><linearGradient id="paint15_linear_812_8873" x1="188.158" y1="88.6514" x2="188.158" y2="99.8839" gradientUnits="userSpaceOnUse"><stop stop-color="#E8E8E8"></stop><stop offset="1" stop-color="#727272"></stop></linearGradient><linearGradient id="paint16_linear_812_8873" x1="194.787" y1="90.6023" x2="194.787" y2="97.6679" gradientUnits="userSpaceOnUse"><stop stop-color="#E8E8E8"></stop><stop offset="1" stop-color="#727272"></stop></linearGradient><linearGradient id="paint17_linear_812_8873" x1="191.34" y1="94.2249" x2="191.34" y2="105.095" gradientUnits="userSpaceOnUse"><stop stop-color="#E8E8E8"></stop><stop offset="1" stop-color="#727272"></stop></linearGradient><linearGradient id="paint18_linear_812_8873" x1="198.234" y1="93.8625" x2="198.234" y2="105.095" gradientUnits="userSpaceOnUse"><stop stop-color="#E8E8E8"></stop><stop offset="1" stop-color="#727272"></stop></linearGradient><linearGradient id="paint19_linear_812_8873" x1="38.828" y1="114.613" x2="46.3473" y2="101.064" gradientUnits="userSpaceOnUse"><stop offset="0.132597" stop-color="#C4C4C4" stop-opacity="0"></stop><stop offset="1" stop-color="#484848"></stop></linearGradient><linearGradient id="paint20_linear_812_8873" x1="86.545" y1="91.7778" x2="86.545" y2="99.0228" gradientUnits="userSpaceOnUse"><stop stop-color="#E8E8E8"></stop><stop offset="1" stop-color="#727272"></stop></linearGradient><linearGradient id="paint21_linear_812_8873" x1="83.0102" y1="95.4924" x2="83.0102" y2="106.639" gradientUnits="userSpaceOnUse"><stop stop-color="#E8E8E8"></stop><stop offset="1" stop-color="#727272"></stop></linearGradient><linearGradient id="paint22_linear_812_8873" x1="90.0796" y1="95.1213" x2="90.0796" y2="106.639" gradientUnits="userSpaceOnUse"><stop stop-color="#E8E8E8"></stop><stop offset="1" stop-color="#727272"></stop></linearGradient><linearGradient id="paint23_linear_812_8873" x1="96.9765" y1="97.4634" x2="96.9765" y2="104.529" gradientUnits="userSpaceOnUse"><stop stop-color="#E8E8E8"></stop><stop offset="1" stop-color="#727272"></stop></linearGradient><linearGradient id="paint24_linear_812_8873" x1="93.5292" y1="101.086" x2="93.5292" y2="111.956" gradientUnits="userSpaceOnUse"><stop stop-color="#E8E8E8"></stop><stop offset="1" stop-color="#727272"></stop></linearGradient><linearGradient id="paint25_linear_812_8873" x1="100.423" y1="100.724" x2="100.423" y2="111.956" gradientUnits="userSpaceOnUse"><stop stop-color="#E8E8E8"></stop><stop offset="1" stop-color="#727272"></stop></linearGradient><linearGradient id="paint26_linear_812_8873" x1="107.053" y1="102.674" x2="107.053" y2="109.74" gradientUnits="userSpaceOnUse"><stop stop-color="#E8E8E8"></stop><stop offset="1" stop-color="#727272"></stop></linearGradient><linearGradient id="paint27_linear_812_8873" x1="103.605" y1="106.297" x2="103.605" y2="117.167" gradientUnits="userSpaceOnUse"><stop stop-color="#E8E8E8"></stop><stop offset="1" stop-color="#727272"></stop></linearGradient><linearGradient id="paint28_linear_812_8873" x1="110.5" y1="105.934" x2="110.5" y2="117.167" gradientUnits="userSpaceOnUse"><stop stop-color="#E8E8E8"></stop><stop offset="1" stop-color="#727272"></stop></linearGradient><linearGradient id="paint29_linear_812_8873" x1="117.129" y1="107.886" x2="117.129" y2="114.951" gradientUnits="userSpaceOnUse"><stop stop-color="#E8E8E8"></stop><stop offset="1" stop-color="#727272"></stop></linearGradient><linearGradient id="paint30_linear_812_8873" x1="113.681" y1="111.509" x2="113.681" y2="122.379" gradientUnits="userSpaceOnUse"><stop stop-color="#E8E8E8"></stop><stop offset="1" stop-color="#727272"></stop></linearGradient><linearGradient id="paint31_linear_812_8873" x1="120.576" y1="111.147" x2="120.576" y2="122.379" gradientUnits="userSpaceOnUse"><stop stop-color="#E8E8E8"></stop><stop offset="1" stop-color="#727272"></stop></linearGradient><linearGradient id="paint32_linear_812_8873" x1="127.205" y1="113.097" x2="127.205" y2="120.163" gradientUnits="userSpaceOnUse"><stop stop-color="#E8E8E8"></stop><stop offset="1" stop-color="#727272"></stop></linearGradient><linearGradient id="paint33_linear_812_8873" x1="123.758" y1="116.72" x2="123.758" y2="127.59" gradientUnits="userSpaceOnUse"><stop stop-color="#E8E8E8"></stop><stop offset="1" stop-color="#727272"></stop></linearGradient><linearGradient id="paint34_linear_812_8873" x1="130.652" y1="116.358" x2="130.652" y2="127.59" gradientUnits="userSpaceOnUse"><stop stop-color="#E8E8E8"></stop><stop offset="1" stop-color="#727272"></stop></linearGradient><linearGradient id="paint35_linear_812_8873" x1="137.281" y1="118.309" x2="137.281" y2="125.374" gradientUnits="userSpaceOnUse"><stop stop-color="#E8E8E8"></stop><stop offset="1" stop-color="#727272"></stop></linearGradient><linearGradient id="paint36_linear_812_8873" x1="133.834" y1="121.932" x2="133.834" y2="132.802" gradientUnits="userSpaceOnUse"><stop stop-color="#E8E8E8"></stop><stop offset="1" stop-color="#727272"></stop></linearGradient><linearGradient id="paint37_linear_812_8873" x1="140.728" y1="121.569" x2="140.728" y2="132.802" gradientUnits="userSpaceOnUse"><stop stop-color="#E8E8E8"></stop><stop offset="1" stop-color="#727272"></stop></linearGradient><linearGradient id="paint38_linear_812_8873" x1="159.657" y1="59.7767" x2="167.176" y2="46.2281" gradientUnits="userSpaceOnUse"><stop offset="0.132597" stop-color="#C4C4C4" stop-opacity="0"></stop><stop offset="1" stop-color="#484848"></stop></linearGradient><linearGradient id="paint39_linear_812_8873" x1="207.374" y1="36.9419" x2="207.374" y2="44.1869" gradientUnits="userSpaceOnUse"><stop stop-color="#E8E8E8"></stop><stop offset="1" stop-color="#727272"></stop></linearGradient><linearGradient id="paint40_linear_812_8873" x1="203.839" y1="40.6565" x2="203.839" y2="51.8026" gradientUnits="userSpaceOnUse"><stop stop-color="#E8E8E8"></stop><stop offset="1" stop-color="#727272"></stop></linearGradient><linearGradient id="paint41_linear_812_8873" x1="210.908" y1="40.2854" x2="210.908" y2="51.8031" gradientUnits="userSpaceOnUse"><stop stop-color="#E8E8E8"></stop><stop offset="1" stop-color="#727272"></stop></linearGradient><linearGradient id="paint42_linear_812_8873" x1="217.805" y1="42.627" x2="217.805" y2="49.6926" gradientUnits="userSpaceOnUse"><stop stop-color="#E8E8E8"></stop><stop offset="1" stop-color="#727272"></stop></linearGradient><linearGradient id="paint43_linear_812_8873" x1="214.358" y1="46.2502" x2="214.358" y2="57.1204" gradientUnits="userSpaceOnUse"><stop stop-color="#E8E8E8"></stop><stop offset="1" stop-color="#727272"></stop></linearGradient><linearGradient id="paint44_linear_812_8873" x1="221.252" y1="45.8879" x2="221.252" y2="57.1204" gradientUnits="userSpaceOnUse"><stop stop-color="#E8E8E8"></stop><stop offset="1" stop-color="#727272"></stop></linearGradient><linearGradient id="paint45_linear_812_8873" x1="227.881" y1="47.8386" x2="227.881" y2="54.9042" gradientUnits="userSpaceOnUse"><stop stop-color="#E8E8E8"></stop><stop offset="1" stop-color="#727272"></stop></linearGradient><linearGradient id="paint46_linear_812_8873" x1="224.434" y1="51.4614" x2="224.434" y2="62.3316" gradientUnits="userSpaceOnUse"><stop stop-color="#E8E8E8"></stop><stop offset="1" stop-color="#727272"></stop></linearGradient><linearGradient id="paint47_linear_812_8873" x1="231.328" y1="51.0989" x2="231.328" y2="62.3314" gradientUnits="userSpaceOnUse"><stop stop-color="#E8E8E8"></stop><stop offset="1" stop-color="#727272"></stop></linearGradient><linearGradient id="paint48_linear_812_8873" x1="237.957" y1="53.0498" x2="237.957" y2="60.1154" gradientUnits="userSpaceOnUse"><stop stop-color="#E8E8E8"></stop><stop offset="1" stop-color="#727272"></stop></linearGradient><linearGradient id="paint49_linear_812_8873" x1="234.51" y1="56.6731" x2="234.51" y2="67.5433" gradientUnits="userSpaceOnUse"><stop stop-color="#E8E8E8"></stop><stop offset="1" stop-color="#727272"></stop></linearGradient><linearGradient id="paint50_linear_812_8873" x1="241.404" y1="56.3105" x2="241.404" y2="67.543" gradientUnits="userSpaceOnUse"><stop stop-color="#E8E8E8"></stop><stop offset="1" stop-color="#727272"></stop></linearGradient><linearGradient id="paint51_linear_812_8873" x1="248.033" y1="58.2615" x2="248.033" y2="65.3271" gradientUnits="userSpaceOnUse"><stop stop-color="#E8E8E8"></stop><stop offset="1" stop-color="#727272"></stop></linearGradient><linearGradient id="paint52_linear_812_8873" x1="244.586" y1="61.8843" x2="244.586" y2="72.7544" gradientUnits="userSpaceOnUse"><stop stop-color="#E8E8E8"></stop><stop offset="1" stop-color="#727272"></stop></linearGradient><linearGradient id="paint53_linear_812_8873" x1="251.48" y1="61.5217" x2="251.48" y2="72.7542" gradientUnits="userSpaceOnUse"><stop stop-color="#E8E8E8"></stop><stop offset="1" stop-color="#727272"></stop></linearGradient><linearGradient id="paint54_linear_812_8873" x1="258.109" y1="63.4727" x2="258.109" y2="70.5383" gradientUnits="userSpaceOnUse"><stop stop-color="#E8E8E8"></stop><stop offset="1" stop-color="#727272"></stop></linearGradient><linearGradient id="paint55_linear_812_8873" x1="254.662" y1="67.0952" x2="254.662" y2="77.9654" gradientUnits="userSpaceOnUse"><stop stop-color="#E8E8E8"></stop><stop offset="1" stop-color="#727272"></stop></linearGradient><linearGradient id="paint56_linear_812_8873" x1="261.556" y1="66.7329" x2="261.556" y2="77.9654" gradientUnits="userSpaceOnUse"><stop stop-color="#E8E8E8"></stop><stop offset="1" stop-color="#727272"></stop></linearGradient><linearGradient id="paint57_linear_812_8873" x1="388.883" y1="126.225" x2="400.75" y2="104.843" gradientUnits="userSpaceOnUse"><stop offset="0.132597" stop-color="#C4C4C4" stop-opacity="0"></stop><stop offset="1" stop-color="#484848"></stop></linearGradient><linearGradient id="paint58_linear_812_8873" x1="525.13" y1="123.851" x2="525.13" y2="135.002" gradientUnits="userSpaceOnUse"><stop stop-color="#E8E8E8"></stop><stop offset="1" stop-color="#727272"></stop></linearGradient><linearGradient id="paint59_linear_812_8873" x1="519.689" y1="129.569" x2="519.689" y2="146.725" gradientUnits="userSpaceOnUse"><stop stop-color="#E8E8E8"></stop><stop offset="1" stop-color="#727272"></stop></linearGradient><linearGradient id="paint60_linear_812_8873" x1="530.57" y1="128.998" x2="530.57" y2="146.725" gradientUnits="userSpaceOnUse"><stop stop-color="#E8E8E8"></stop><stop offset="1" stop-color="#727272"></stop></linearGradient><linearGradient id="paint61_linear_812_8873" x1="541.032" y1="132.076" x2="541.032" y2="143.227" gradientUnits="userSpaceOnUse"><stop stop-color="#E8E8E8"></stop><stop offset="1" stop-color="#727272"></stop></linearGradient><linearGradient id="paint62_linear_812_8873" x1="535.592" y1="137.794" x2="535.592" y2="154.949" gradientUnits="userSpaceOnUse"><stop stop-color="#E8E8E8"></stop><stop offset="1" stop-color="#727272"></stop></linearGradient><linearGradient id="paint63_linear_812_8873" x1="546.472" y1="137.222" x2="546.472" y2="154.949" gradientUnits="userSpaceOnUse"><stop stop-color="#E8E8E8"></stop><stop offset="1" stop-color="#727272"></stop></linearGradient><linearGradient id="paint64_linear_812_8873" x1="556.935" y1="140.301" x2="556.935" y2="151.452" gradientUnits="userSpaceOnUse"><stop stop-color="#E8E8E8"></stop><stop offset="1" stop-color="#727272"></stop></linearGradient><linearGradient id="paint65_linear_812_8873" x1="551.494" y1="146.019" x2="551.494" y2="163.174" gradientUnits="userSpaceOnUse"><stop stop-color="#E8E8E8"></stop><stop offset="1" stop-color="#727272"></stop></linearGradient><linearGradient id="paint66_linear_812_8873" x1="562.375" y1="145.447" x2="562.375" y2="163.175" gradientUnits="userSpaceOnUse"><stop stop-color="#E8E8E8"></stop><stop offset="1" stop-color="#727272"></stop></linearGradient><linearGradient id="paint67_linear_812_8873" x1="572.837" y1="148.525" x2="572.837" y2="159.677" gradientUnits="userSpaceOnUse"><stop stop-color="#E8E8E8"></stop><stop offset="1" stop-color="#727272"></stop></linearGradient><linearGradient id="paint68_linear_812_8873" x1="567.397" y1="154.243" x2="567.397" y2="171.399" gradientUnits="userSpaceOnUse"><stop stop-color="#E8E8E8"></stop><stop offset="1" stop-color="#727272"></stop></linearGradient><linearGradient id="paint69_linear_812_8873" x1="578.277" y1="153.671" x2="578.277" y2="171.399" gradientUnits="userSpaceOnUse"><stop stop-color="#E8E8E8"></stop><stop offset="1" stop-color="#727272"></stop></linearGradient><linearGradient id="paint70_linear_812_8873" x1="449.31" y1="196.378" x2="449.31" y2="214.745" gradientUnits="userSpaceOnUse"><stop stop-color="#E8E8E8"></stop><stop offset="1" stop-color="#727272"></stop></linearGradient><linearGradient id="paint71_linear_812_8873" x1="440.349" y1="205.795" x2="440.349" y2="234.052" gradientUnits="userSpaceOnUse"><stop stop-color="#E8E8E8"></stop><stop offset="1" stop-color="#727272"></stop></linearGradient><linearGradient id="paint72_linear_812_8873" x1="458.27" y1="204.854" x2="458.27" y2="234.052" gradientUnits="userSpaceOnUse"><stop stop-color="#E8E8E8"></stop><stop offset="1" stop-color="#727272"></stop></linearGradient><linearGradient id="paint73_linear_812_8873" x1="475.502" y1="209.924" x2="475.502" y2="228.291" gradientUnits="userSpaceOnUse"><stop stop-color="#E8E8E8"></stop><stop offset="1" stop-color="#727272"></stop></linearGradient><linearGradient id="paint74_linear_812_8873" x1="466.541" y1="219.341" x2="466.541" y2="247.597" gradientUnits="userSpaceOnUse"><stop stop-color="#E8E8E8"></stop><stop offset="1" stop-color="#727272"></stop></linearGradient><linearGradient id="paint75_linear_812_8873" x1="484.462" y1="218.399" x2="484.462" y2="247.598" gradientUnits="userSpaceOnUse"><stop stop-color="#E8E8E8"></stop><stop offset="1" stop-color="#727272"></stop></linearGradient><linearGradient id="paint76_linear_812_8873" x1="501.695" y1="223.471" x2="501.695" y2="241.837" gradientUnits="userSpaceOnUse"><stop stop-color="#E8E8E8"></stop><stop offset="1" stop-color="#727272"></stop></linearGradient><linearGradient id="paint77_linear_812_8873" x1="492.734" y1="232.888" x2="492.734" y2="261.144" gradientUnits="userSpaceOnUse"><stop stop-color="#E8E8E8"></stop><stop offset="1" stop-color="#727272"></stop></linearGradient><linearGradient id="paint78_linear_812_8873" x1="510.655" y1="231.947" x2="510.655" y2="261.145" gradientUnits="userSpaceOnUse"><stop stop-color="#E8E8E8"></stop><stop offset="1" stop-color="#727272"></stop></linearGradient><linearGradient id="paint79_linear_812_8873" x1="527.887" y1="237.017" x2="527.887" y2="255.384" gradientUnits="userSpaceOnUse"><stop stop-color="#E8E8E8"></stop><stop offset="1" stop-color="#727272"></stop></linearGradient><linearGradient id="paint80_linear_812_8873" x1="518.926" y1="246.434" x2="518.926" y2="274.691" gradientUnits="userSpaceOnUse"><stop stop-color="#E8E8E8"></stop><stop offset="1" stop-color="#727272"></stop></linearGradient><linearGradient id="paint81_linear_812_8873" x1="536.847" y1="245.493" x2="536.847" y2="274.691" gradientUnits="userSpaceOnUse"><stop stop-color="#E8E8E8"></stop><stop offset="1" stop-color="#727272"></stop></linearGradient><linearGradient id="paint82_linear_812_8873" x1="554.079" y1="250.564" x2="554.079" y2="268.93" gradientUnits="userSpaceOnUse"><stop stop-color="#E8E8E8"></stop><stop offset="1" stop-color="#727272"></stop></linearGradient><linearGradient id="paint83_linear_812_8873" x1="545.118" y1="259.981" x2="545.118" y2="288.237" gradientUnits="userSpaceOnUse"><stop stop-color="#E8E8E8"></stop><stop offset="1" stop-color="#727272"></stop></linearGradient><linearGradient id="paint84_linear_812_8873" x1="563.04" y1="259.04" x2="563.04" y2="288.238" gradientUnits="userSpaceOnUse"><stop stop-color="#E8E8E8"></stop><stop offset="1" stop-color="#727272"></stop></linearGradient><linearGradient id="paint85_linear_812_8873" x1="223.883" y1="199.111" x2="243.508" y2="163.75" gradientUnits="userSpaceOnUse"><stop offset="0.132597" stop-color="#C4C4C4" stop-opacity="0"></stop><stop offset="1" stop-color="#484848"></stop></linearGradient><linearGradient id="paint86_linear_812_8873" x1="128.584" y1="246.604" x2="140.451" y2="225.221" gradientUnits="userSpaceOnUse"><stop offset="0.132597" stop-color="#C4C4C4" stop-opacity="0"></stop><stop offset="1" stop-color="#484848"></stop></linearGradient><linearGradient id="paint87_linear_812_8873" x1="264.831" y1="244.23" x2="264.831" y2="255.381" gradientUnits="userSpaceOnUse"><stop stop-color="#E8E8E8"></stop><stop offset="1" stop-color="#727272"></stop></linearGradient><linearGradient id="paint88_linear_812_8873" x1="259.39" y1="249.948" x2="259.39" y2="267.103" gradientUnits="userSpaceOnUse"><stop stop-color="#E8E8E8"></stop><stop offset="1" stop-color="#727272"></stop></linearGradient><linearGradient id="paint89_linear_812_8873" x1="270.271" y1="249.376" x2="270.271" y2="267.103" gradientUnits="userSpaceOnUse"><stop stop-color="#E8E8E8"></stop><stop offset="1" stop-color="#727272"></stop></linearGradient><linearGradient id="paint90_linear_812_8873" x1="280.733" y1="252.455" x2="280.733" y2="263.606" gradientUnits="userSpaceOnUse"><stop stop-color="#E8E8E8"></stop><stop offset="1" stop-color="#727272"></stop></linearGradient><linearGradient id="paint91_linear_812_8873" x1="275.293" y1="258.173" x2="275.293" y2="275.328" gradientUnits="userSpaceOnUse"><stop stop-color="#E8E8E8"></stop><stop offset="1" stop-color="#727272"></stop></linearGradient><linearGradient id="paint92_linear_812_8873" x1="286.173" y1="257.601" x2="286.173" y2="275.328" gradientUnits="userSpaceOnUse"><stop stop-color="#E8E8E8"></stop><stop offset="1" stop-color="#727272"></stop></linearGradient><linearGradient id="paint93_linear_812_8873" x1="296.636" y1="260.679" x2="296.636" y2="271.83" gradientUnits="userSpaceOnUse"><stop stop-color="#E8E8E8"></stop><stop offset="1" stop-color="#727272"></stop></linearGradient><linearGradient id="paint94_linear_812_8873" x1="291.195" y1="266.397" x2="291.195" y2="283.553" gradientUnits="userSpaceOnUse"><stop stop-color="#E8E8E8"></stop><stop offset="1" stop-color="#727272"></stop></linearGradient><linearGradient id="paint95_linear_812_8873" x1="302.076" y1="265.825" x2="302.076" y2="283.553" gradientUnits="userSpaceOnUse"><stop stop-color="#E8E8E8"></stop><stop offset="1" stop-color="#727272"></stop></linearGradient><linearGradient id="paint96_linear_812_8873" x1="312.538" y1="268.904" x2="312.538" y2="280.055" gradientUnits="userSpaceOnUse"><stop stop-color="#E8E8E8"></stop><stop offset="1" stop-color="#727272"></stop></linearGradient><linearGradient id="paint97_linear_812_8873" x1="307.098" y1="274.622" x2="307.098" y2="291.777" gradientUnits="userSpaceOnUse"><stop stop-color="#E8E8E8"></stop><stop offset="1" stop-color="#727272"></stop></linearGradient><linearGradient id="paint98_linear_812_8873" x1="317.978" y1="274.05" x2="317.978" y2="291.778" gradientUnits="userSpaceOnUse"><stop stop-color="#E8E8E8"></stop><stop offset="1" stop-color="#727272"></stop></linearGradient><linearGradient id="paint99_linear_812_8873" x1="328.441" y1="277.129" x2="328.441" y2="288.28" gradientUnits="userSpaceOnUse"><stop stop-color="#E8E8E8"></stop><stop offset="1" stop-color="#727272"></stop></linearGradient><linearGradient id="paint100_linear_812_8873" x1="323" y1="282.847" x2="323" y2="300.003" gradientUnits="userSpaceOnUse"><stop stop-color="#E8E8E8"></stop><stop offset="1" stop-color="#727272"></stop></linearGradient><linearGradient id="paint101_linear_812_8873" x1="333.881" y1="282.275" x2="333.881" y2="300.003" gradientUnits="userSpaceOnUse"><stop stop-color="#E8E8E8"></stop><stop offset="1" stop-color="#727272"></stop></linearGradient></defs></svg>