<svg width="33" height="32" viewBox="0 0 33 32" fill="none" xmlns="http://www.w3.org/2000/svg">
<path d="M6.23538 27.201L3.98938 2H28.6774L26.4284 27.197L16.3184 30L6.23538 27.201Z" fill="#1572B6"/>
<path d="M16.3334 27.858L24.5034 25.593L26.4254 4.06104H16.3334V27.858Z" fill="#33A9DC"/>
<path d="M16.3334 13.1911H20.4234L20.7054 10.0261H16.3334V6.93506H24.0834L24.0094 7.76406L23.2504 16.2821H16.3334V13.1911Z" fill="white"/>
<path d="M16.3524 21.2179L16.3384 21.2219L12.8964 20.2919L12.6764 17.8269H9.57336L10.0064 22.6799L16.3374 24.4379L16.3524 24.4339V21.2179Z" fill="#EBEBEB"/>
<path d="M20.1604 16.1509L19.7884 20.2899L16.3414 21.2199V24.4359L22.6774 22.6799L22.7244 22.1579L23.2614 16.1509H20.1604Z" fill="white"/>
<path d="M16.3444 6.93506V10.0261H8.87838L8.81638 9.33106L8.67538 7.76406L8.60138 6.93506H16.3444ZM16.3334 13.1911V16.2821H12.9344L12.8724 15.5871L12.7324 14.0201L12.6584 13.1911H16.3334Z" fill="#EBEBEB"/>
</svg>
