<svg width="24" height="24" viewBox="0 0 24 24" fill="none" xmlns="http://www.w3.org/2000/svg">
<path d="M15.5 9L15.6716 9.17157C17.0049 10.5049 17.6716 11.1716 17.6716 12C17.6716 12.8284 17.0049 13.4951 15.6716 14.8284L15.5 15" stroke="url(#paint0_linear_2556_1062)" stroke-width="1.5" stroke-linecap="round"/>
<path d="M13.2939 7.16992L11.9998 11.9996L10.7058 16.8292" stroke="url(#paint1_linear_2556_1062)" stroke-width="1.5" stroke-linecap="round"/>
<path d="M8.50019 9L8.32861 9.17157C6.99528 10.5049 6.32861 11.1716 6.32861 12C6.32861 12.8284 6.99528 13.4951 8.32861 14.8284L8.50019 15" stroke="url(#paint2_linear_2556_1062)" stroke-width="1.5" stroke-linecap="round"/>
<path d="M2 12C2 7.28595 2 4.92893 3.46447 3.46447C4.92893 2 7.28595 2 12 2C16.714 2 19.0711 2 20.5355 3.46447C22 4.92893 22 7.28595 22 12C22 16.714 22 19.0711 20.5355 20.5355C19.0711 22 16.714 22 12 22C7.28595 22 4.92893 22 3.46447 20.5355C2 19.0711 2 16.714 2 12Z" stroke="url(#paint3_linear_2556_1062)" stroke-width="1.5"/>
<defs>
<linearGradient id="paint0_linear_2556_1062" x1="15.5" y1="9" x2="19.5452" y2="10.808" gradientUnits="userSpaceOnUse">
<stop stop-color="#969699"/>
<stop offset="1" stop-color="#1E1E22"/>
</linearGradient>
<linearGradient id="paint1_linear_2556_1062" x1="13.2939" y1="7.16992" x2="15.3499" y2="8.00225" gradientUnits="userSpaceOnUse">
<stop stop-color="#969699"/>
<stop offset="1" stop-color="#1E1E22"/>
</linearGradient>
<linearGradient id="paint2_linear_2556_1062" x1="6.32861" y1="9" x2="10.3738" y2="10.808" gradientUnits="userSpaceOnUse">
<stop stop-color="#969699"/>
<stop offset="1" stop-color="#1E1E22"/>
</linearGradient>
<linearGradient id="paint3_linear_2556_1062" x1="2" y1="2" x2="19.7024" y2="23.8606" gradientUnits="userSpaceOnUse">
<stop stop-color="#969699"/>
<stop offset="1" stop-color="#1E1E22"/>
</linearGradient>
</defs>
</svg>
