<svg width="32" height="32" viewBox="0 0 32 32" fill="none" xmlns="http://www.w3.org/2000/svg">
<g clip-path="url(#clip0_2198_3721)">
<path d="M4.22401 10.0891V21.7561H5.58901V13.3181C5.60031 12.7842 5.57759 12.2501 5.52101 11.7191H5.57301C5.67201 11.9741 5.79701 12.2191 5.94301 12.4481L11.943 21.7501H13.615V10.0891H12.256V18.2921C12.24 18.8651 12.272 19.4381 12.339 20.0061H12.308C12.1586 19.7407 12.0005 19.4802 11.834 19.2251L5.99501 10.0901L4.22401 10.0891ZM16.641 10.0891V21.7561H22.844L22.849 20.4751H18.036V16.4281H22.25V15.1991H18.036V11.3241H22.557V10.0901L16.641 10.0891ZM23.891 10.0891V11.3231H27.245V21.7551H28.61V11.3231H32.001V10.0891H23.891ZM0.870011 20.0891C0.755215 20.0921 0.642185 20.1181 0.53759 20.1655C0.432995 20.2129 0.338953 20.2808 0.261011 20.3651C0.0933491 20.5362 -7.46457e-05 20.7666 0.00101079 21.0061C-0.000552194 21.1855 0.051441 21.3612 0.150334 21.5108C0.249228 21.6604 0.390522 21.7771 0.556128 21.8459C0.721734 21.9148 0.904117 21.9326 1.07993 21.8972C1.25574 21.8618 1.41698 21.7747 1.54301 21.6471C1.71501 21.4801 1.81401 21.2461 1.81401 21.0061C1.81401 20.7661 1.71501 20.5321 1.54301 20.3651C1.46078 20.2776 1.36145 20.208 1.25118 20.1605C1.14092 20.113 1.02207 20.0887 0.902011 20.0891H0.870011Z" fill="#9747FF"/>
</g>
<defs>
<clipPath id="clip0_2198_3721">
<rect width="32" height="32" fill="white"/>
</clipPath>
</defs>
</svg>
