<svg width="33" height="32" viewBox="0 0 33 32" fill="none" xmlns="http://www.w3.org/2000/svg">
<mask id="mask0_2199_3824" style="mask-type:luminance" maskUnits="userSpaceOnUse" x="8" y="3" width="17" height="26">
<path d="M8.29166 3.5H24.9617V28.5H8.29166V3.5Z" fill="white"/>
</mask>
<g mask="url(#mask0_2199_3824)">
<path d="M12.46 28.4999C14.76 28.4999 16.6266 26.6333 16.6266 24.3333V20.1665H12.46C10.16 20.1665 8.29327 22.0333 8.29327 24.3333C8.29327 26.6333 10.16 28.4999 12.46 28.4999Z" fill="#0ACF83"/>
<path d="M8.29327 16.0001C8.29327 13.7001 10.16 11.8335 12.46 11.8335H16.6266V20.1667H12.46C10.16 20.1667 8.29327 18.3001 8.29327 16.0001Z" fill="#A259FF"/>
<path d="M8.29327 7.66663C8.29327 5.36663 10.16 3.5 12.46 3.5H16.6266V11.8334H12.46C10.16 11.8334 8.29327 9.96663 8.29327 7.66663Z" fill="#F24E1E"/>
<path d="M16.6266 3.5H20.7933C23.0933 3.5 24.96 5.36663 24.96 7.66663C24.96 9.96663 23.0933 11.8334 20.7933 11.8334H16.6266V3.5Z" fill="#FF7262"/>
<path d="M24.96 16.0001C24.96 18.3001 23.0933 20.1667 20.7933 20.1667C18.4933 20.1667 16.6266 18.3001 16.6266 16.0001C16.6266 13.7001 18.4933 11.8335 20.7933 11.8335C23.0933 11.8335 24.96 13.7001 24.96 16.0001Z" fill="#1ABCFE"/>
</g>
</svg>
