<svg width="33" height="32" viewBox="0 0 33 32" fill="none" xmlns="http://www.w3.org/2000/svg">
<path d="M6.23537 27.201L3.98837 2H28.6784L26.4284 27.197L16.3184 30L6.23537 27.201Z" fill="#E44F26"/>
<path d="M16.3334 27.858L24.5034 25.593L26.4254 4.06104H16.3334V27.858Z" fill="#F1662A"/>
<path d="M16.3334 13.4069H12.2434L11.9614 10.2419H16.3334V7.15088H8.58337L8.65737 7.98088L9.41637 16.4979H16.3334V13.4069ZM16.3334 21.4339L16.3194 21.4379L12.8774 20.5089L12.6574 18.0439H9.55437L9.98737 22.8959L16.3194 24.6539L16.3334 24.6499V21.4339Z" fill="#EBEBEB"/>
<path d="M16.3224 13.4069V16.4979H20.1284L19.7704 20.5069L16.3224 21.4369V24.6529L22.6594 22.8959L22.7054 22.3739L23.4314 14.2369L23.5074 13.4069H16.3224ZM16.3224 7.15088V10.2419H23.7884L23.8504 9.54788L23.9914 7.98088L24.0654 7.15088H16.3224Z" fill="white"/>
</svg>
