<svg width="33" height="32" viewBox="0 0 33 32" fill="none" xmlns="http://www.w3.org/2000/svg">
<path d="M16.1333 19.0415H11.1733L10.1599 22.1749C10.1333 22.2949 10.0267 22.3749 9.90666 22.3615H7.39991C7.25328 22.3615 7.21328 22.2815 7.25328 22.1215L11.5467 9.76155C11.5867 9.6283 11.6267 9.48155 11.6799 9.32155C11.7333 9.04155 11.7599 8.7483 11.7599 8.45492C11.7467 8.3883 11.7999 8.32155 11.8667 8.3083H15.3199C15.4267 8.3083 15.4799 8.3483 15.4933 8.41492L20.3599 22.1483C20.3999 22.2949 20.3599 22.3615 20.2267 22.3615H17.4399C17.3467 22.3749 17.2533 22.3083 17.2267 22.2149L16.1333 19.0415ZM11.9467 16.3349H15.3333C15.2533 16.0549 15.1467 15.7215 15.0267 15.3749C14.9067 15.0149 14.7867 14.6283 14.6667 14.2283C14.5333 13.8149 14.4133 13.4149 14.2799 13.0015C14.1467 12.5883 14.0267 12.2015 13.9199 11.8149C13.8133 11.4417 13.7199 11.0949 13.6267 10.7749H13.5999C13.4799 11.3483 13.3333 11.9217 13.1467 12.4949C12.9467 13.1349 12.7467 13.8015 12.5333 14.4683C12.3611 15.0976 12.1654 15.7202 11.9467 16.3349ZM23.3333 10.6415C22.8933 10.6549 22.4667 10.4815 22.1467 10.1749C21.84 9.84155 21.68 9.40155 21.6933 8.9483C21.68 8.49492 21.8533 8.0683 22.1733 7.76155C22.4933 7.45492 22.92 7.29492 23.36 7.29492C23.88 7.29492 24.28 7.45492 24.5733 7.76155C24.8688 8.08481 25.0266 8.51053 25.0133 8.9483C25.0267 9.40155 24.8667 9.84155 24.5467 10.1749C24.24 10.4949 23.7867 10.6683 23.3333 10.6415ZM21.84 22.2149V11.9483C21.84 11.8149 21.8933 11.7615 22.0133 11.7615H24.6533C24.7733 11.7615 24.8267 11.8283 24.8267 11.9483V22.2149C24.8267 22.3615 24.7733 22.4283 24.6533 22.4283H22.04C21.9067 22.4283 21.84 22.3483 21.84 22.2149Z" fill="#FF9A00"/>
</svg>
