<svg width="33" height="32" viewBox="0 0 33 32" fill="none" xmlns="http://www.w3.org/2000/svg">
<path d="M30.84 13.8801C29.4846 15.0126 27.7354 15.5615 25.9759 15.4065C24.2164 15.2516 22.5901 14.4054 21.4534 13.0534C19.08 10.2267 19.4534 6.00006 22.2667 3.66673L22.9467 3.16006C21.8435 4.35625 21.2135 5.9131 21.1742 7.53986C21.1349 9.16662 21.6892 10.7521 22.7334 12.0001C24.9067 14.5867 28.6667 15.0934 31.4534 13.2934L30.84 13.8801ZM28.4667 19.3334C27.4628 20.1799 26.3016 20.8198 25.0498 21.2164C23.798 21.6131 22.4801 21.7586 21.1719 21.6446C19.8637 21.5306 18.5909 21.1594 17.4265 20.5523C16.2621 19.9452 15.2291 19.1141 14.3867 18.1067C10.8267 13.8801 11.3867 7.5734 15.6134 4.00006L16.84 3.14673C15.2561 4.94088 14.3688 7.24394 14.3394 9.63703C14.3101 12.0301 15.1406 14.3543 16.68 16.1867C19.9067 20.0001 25.4 20.8401 29.5467 18.2934L28.4667 19.3334ZM26.96 25.8401C21.04 30.8134 12.2 30.0401 7.22671 24.1067C2.26671 18.1867 3.04005 9.3334 8.96005 4.38673L10.44 3.3334C5.76005 8.40006 5.46671 16.3067 10.04 21.7601C14.6134 27.2001 22.4534 28.2934 28.28 24.5734L26.96 25.8401Z" fill="#0868AC"/>
</svg>
