<svg width="33" height="32" viewBox="0 0 33 32" fill="none" xmlns="http://www.w3.org/2000/svg">
<path d="M19.1074 19.6999C19.4179 20.3286 19.8993 20.857 20.4965 21.2245C21.0936 21.5921 21.7822 21.7839 22.4834 21.7779C23.9014 21.7779 24.8074 21.0689 24.8074 20.0899C24.8074 18.9169 23.8764 18.5009 22.3164 17.8179L21.4604 17.4509C18.9914 16.3989 17.3504 15.0809 17.3504 12.2949C17.3504 9.72789 19.3064 7.77489 22.3624 7.77489C23.3542 7.70319 24.3451 7.92531 25.2114 8.41351C26.0777 8.90171 26.781 9.63434 27.2334 10.5199L24.5684 12.2309C24.3935 11.7922 24.0895 11.4171 23.6966 11.1551C23.3037 10.8931 22.8405 10.7567 22.3684 10.7639C22.1625 10.7433 21.9547 10.7659 21.7581 10.83C21.5614 10.8942 21.3803 10.9986 21.2262 11.1366C21.0721 11.2746 20.9485 11.4431 20.8631 11.6315C20.7777 11.8199 20.7325 12.0241 20.7304 12.2309C20.7304 13.2579 21.3664 13.6729 22.8304 14.3089L23.6864 14.6749C26.5944 15.9219 28.2354 17.1929 28.2354 20.0509C28.2354 23.1319 25.8154 24.8199 22.5644 24.8199C21.2981 24.8998 20.0358 24.6119 18.9294 23.991C17.823 23.37 16.9197 22.4424 16.3284 21.3199L19.1074 19.6999ZM7.01937 19.9999C7.55737 20.9539 8.04637 21.7599 9.21937 21.7599C10.3434 21.7599 11.0534 21.3199 11.0534 19.6099V7.97489H14.4754V19.6579C14.4754 23.2009 12.3974 24.8139 9.36537 24.8139C8.29431 24.8722 7.23072 24.6047 6.31464 24.0467C5.39857 23.4887 4.67296 22.6663 4.23337 21.6879L7.01937 19.9999Z" fill="#FBC02D"/>
</svg>
