<svg width="32" height="32" viewBox="0 0 32 32" fill="none" xmlns="http://www.w3.org/2000/svg">
<path d="M16 30C15.6223 30.0002 15.2511 29.9009 14.924 29.712L11.5 27.685C10.989 27.399 11.238 27.298 11.407 27.239C11.9506 27.0714 12.471 26.8362 12.956 26.539C12.9965 26.52 13.0413 26.5117 13.086 26.515C13.1307 26.5183 13.1737 26.5332 13.211 26.558L15.842 28.121C15.891 28.1469 15.9456 28.1605 16.001 28.1605C16.0564 28.1605 16.111 28.1469 16.16 28.121L26.42 22.199C26.4682 22.1705 26.5081 22.1298 26.5356 22.081C26.5632 22.0322 26.5775 21.9771 26.577 21.921V10.075C26.5771 10.0182 26.5626 9.96221 26.5347 9.91263C26.5068 9.86304 26.4666 9.8215 26.418 9.79203L16.158 3.87503C16.1097 3.8475 16.0551 3.83302 15.9995 3.83302C15.9439 3.83302 15.8893 3.8475 15.841 3.87503L5.587 9.79403C5.53809 9.82296 5.49748 9.86402 5.4691 9.91325C5.44071 9.96248 5.42553 10.0182 5.425 10.075V21.916C5.42565 21.9718 5.44084 22.0264 5.46908 22.0744C5.49732 22.1225 5.53763 22.1623 5.586 22.19L8.4 23.814C9.925 24.576 10.859 23.678 10.859 22.776V11.085C10.859 11.0055 10.8906 10.9292 10.9469 10.8729C11.0031 10.8166 11.0794 10.785 11.159 10.785H12.459C12.5386 10.785 12.6149 10.8166 12.6711 10.8729C12.7274 10.9292 12.759 11.0055 12.759 11.085V22.777C12.759 24.812 11.651 25.977 9.721 25.977C8.88846 25.9909 8.06905 25.7683 7.358 25.335L4.661 23.788C4.33386 23.5971 4.06241 23.3238 3.87364 22.9954C3.68487 22.6669 3.58536 22.2948 3.585 21.916V10.075C3.58383 9.69552 3.68266 9.3224 3.87156 8.99323C4.06045 8.66407 4.33274 8.39049 4.661 8.20003L14.922 2.27603C15.2526 2.09555 15.6233 2.00098 16 2.00098C16.3767 2.00098 16.7474 2.09555 17.078 2.27603L27.338 8.20003C27.665 8.3907 27.9365 8.66362 28.1254 8.99166C28.3144 9.31971 28.4142 9.69147 28.415 10.07V21.916C28.4145 22.2949 28.3149 22.6671 28.1259 22.9955C27.937 23.324 27.6653 23.5972 27.338 23.788L17.078 29.712C16.7503 29.9012 16.3784 30.0006 16 30Z" fill="#83CD29"/>
<path d="M14.054 17.9531C14.054 17.8736 14.0856 17.7972 14.1419 17.741C14.1981 17.6847 14.2744 17.6531 14.354 17.6531H15.681C15.7519 17.6533 15.8204 17.6787 15.8744 17.7246C15.9284 17.7706 15.9644 17.8342 15.976 17.9041C16.176 19.2551 16.776 19.9361 19.489 19.9361C21.65 19.9361 22.571 19.4471 22.571 18.3001C22.571 17.6391 22.31 17.1481 18.951 16.8191C16.143 16.5411 14.407 15.9191 14.407 13.6751C14.407 11.6051 16.152 10.3701 19.077 10.3701C22.364 10.3701 23.991 11.5111 24.197 13.9591C24.2001 14 24.1949 14.0411 24.1815 14.0798C24.1682 14.1186 24.147 14.1542 24.1194 14.1845C24.0917 14.2147 24.0582 14.239 24.0208 14.2558C23.9834 14.2726 23.943 14.2816 23.902 14.2821H22.566C22.499 14.2812 22.4342 14.2578 22.382 14.2158C22.3298 14.1737 22.2932 14.1154 22.278 14.0501C21.959 12.6291 21.178 12.1751 19.078 12.1751C16.718 12.1751 16.444 12.9971 16.444 13.6131C16.444 14.3591 16.768 14.5771 19.954 14.9981C23.107 15.4151 24.605 16.0051 24.605 18.2211C24.605 20.4571 22.741 21.7371 19.49 21.7371C14.995 21.7431 14.054 19.6821 14.054 17.9531Z" fill="#83CD29"/>
</svg>
