<svg width="33" height="32" viewBox="0 0 33 32" fill="none" xmlns="http://www.w3.org/2000/svg">
<path d="M7.86666 22.255V8.53497C7.86666 8.4416 7.90666 8.38835 8.00003 8.38835C8.22666 8.38835 8.44003 8.38835 8.74666 8.37497C9.06666 8.3616 9.40003 8.3616 9.76003 8.34835C10.12 8.33497 10.5067 8.33497 10.92 8.3216C11.3333 8.30835 11.7333 8.30835 12.1333 8.30835C13.2267 8.30835 14.1333 8.4416 14.88 8.7216C15.5494 8.94892 16.1597 9.32241 16.6667 9.81497C17.0963 10.246 17.4282 10.7644 17.64 11.335C17.84 11.895 17.9467 12.4683 17.9467 13.0683C17.9467 14.215 17.68 15.1616 17.1467 15.9083C16.6133 16.655 15.8667 17.215 15 17.535C14.0933 17.8683 13.0933 17.9883 12 17.9883C11.68 17.9883 11.4667 17.9883 11.3333 17.975C11.2 17.9616 11.0133 17.9616 10.76 17.9616V22.2416C10.7733 22.335 10.7067 22.415 10.6133 22.4283H8.02666C7.92003 22.4283 7.86666 22.375 7.86666 22.255ZM10.7733 10.9616V15.4416C10.96 15.455 11.1333 15.4683 11.2933 15.4683H12C12.52 15.4683 13.04 15.3883 13.5333 15.2283C13.96 15.1083 14.3333 14.855 14.6267 14.5216C14.9067 14.1883 15.04 13.735 15.04 13.1483C15.0526 12.7317 14.9462 12.32 14.7333 11.9616C14.5067 11.615 14.1867 11.3483 13.8 11.2016C13.3067 11.0016 12.7733 10.9216 12.2267 10.935C11.88 10.935 11.5733 10.935 11.32 10.9483C11.0533 10.935 10.8667 10.9483 10.7733 10.9616ZM26.2667 14.6283C25.8667 14.415 25.44 14.2683 24.9867 14.175C24.4933 14.0683 24 14.0016 23.4933 14.0016C23.2267 13.9883 22.9467 14.0283 22.6933 14.095C22.52 14.135 22.3733 14.2283 22.28 14.3616C22.2133 14.4683 22.1733 14.6016 22.1733 14.7216C22.1733 14.8416 22.2267 14.9616 22.3067 15.0683C22.4267 15.215 22.5867 15.335 22.76 15.4283C23.0692 15.5885 23.385 15.7353 23.7067 15.8683C24.4267 16.1083 25.12 16.4416 25.76 16.8416C26.2 17.1216 26.56 17.495 26.8133 17.9483C27.0267 18.375 27.1333 18.8416 27.12 19.3216C27.1333 19.9483 26.9467 20.575 26.6 21.095C26.2281 21.6272 25.7092 22.0396 25.1067 22.2816C24.4533 22.5616 23.6533 22.7084 22.6933 22.7084C22.08 22.7084 21.48 22.655 20.88 22.535C20.4098 22.4538 19.9524 22.3103 19.52 22.1083C19.4267 22.055 19.36 21.9616 19.3733 21.855V19.535C19.3733 19.495 19.3867 19.4416 19.4267 19.415C19.4667 19.3884 19.5067 19.4016 19.5467 19.4283C20.0667 19.735 20.6133 19.9483 21.2 20.0816C21.7067 20.215 22.24 20.2816 22.7733 20.2816C23.28 20.2816 23.64 20.215 23.88 20.095C24.0933 20.0016 24.24 19.775 24.24 19.535C24.24 19.3483 24.1333 19.175 23.92 19.0016C23.7067 18.8283 23.2667 18.6283 22.6133 18.375C21.9431 18.1388 21.3066 17.8161 20.72 17.415C20.3022 17.1172 19.956 16.73 19.7067 16.2816C19.4933 15.855 19.3867 15.3883 19.4 14.9216C19.4 14.3483 19.56 13.8016 19.8533 13.3083C20.1867 12.775 20.68 12.3483 21.2533 12.0816C21.88 11.7616 22.6667 11.615 23.6133 11.615C24.16 11.615 24.72 11.655 25.2667 11.735C25.6667 11.7883 26.0533 11.895 26.4133 12.0416C26.4667 12.055 26.52 12.1083 26.5467 12.1616C26.56 12.215 26.5733 12.2683 26.5733 12.3216V14.495C26.5733 14.5483 26.5467 14.6016 26.5067 14.6283C26.3867 14.655 26.32 14.655 26.2667 14.6283Z" fill="#31A8FF"/>
</svg>
