<svg width="32" height="32" viewBox="0 0 32 32" fill="none" xmlns="http://www.w3.org/2000/svg">
<path d="M16 18.4741C17.3807 18.4741 18.5 17.3548 18.5 15.9741C18.5 14.5934 17.3807 13.4741 16 13.4741C14.6193 13.4741 13.5 14.5934 13.5 15.9741C13.5 17.3548 14.6193 18.4741 16 18.4741Z" fill="#00D8FF"/>
<path d="M16 21.7059C12.9951 21.7783 9.99785 21.3733 7.12 20.5059C5.79062 20.0845 4.55073 19.4207 3.463 18.5479C3.04779 18.2499 2.70202 17.8655 2.44948 17.4212C2.19693 16.9769 2.04359 16.4831 2 15.9739C2 14.3209 3.816 12.7009 6.858 11.6409C9.81291 10.7024 12.9 10.2472 16 10.2929C19.0587 10.2506 22.1044 10.6976 25.022 11.6169C26.3021 12.0255 27.4999 12.6573 28.56 13.4829C28.9675 13.7676 29.3077 14.1382 29.5565 14.5686C29.8053 14.999 29.9567 15.4787 30 15.9739C30 17.6919 27.97 19.4329 24.7 20.5149C21.8779 21.3543 18.9438 21.756 16 21.7059ZM16 11.4889C13.0342 11.4502 10.081 11.8829 7.251 12.7709C4.451 13.7479 3.196 15.0839 3.196 15.9709C3.196 16.8989 4.545 18.3579 7.507 19.3709C10.26 20.1969 13.1266 20.5814 16 20.5099C18.8164 20.5603 21.6239 20.1792 24.325 19.3799C27.4 18.3609 28.8 16.8999 28.8 15.9739C28.7494 15.6562 28.6335 15.3524 28.4597 15.0817C28.2858 14.811 28.0578 14.5792 27.79 14.4009C26.8417 13.6682 25.7717 13.1083 24.629 12.7469C21.8379 11.8713 18.9249 11.4466 16 11.4889Z" fill="#00D8FF"/>
<path d="M10.32 28.443C9.85351 28.4537 9.39253 28.3405 8.98401 28.115C7.55201 27.289 7.05601 24.907 7.65701 21.742C8.32041 18.7133 9.46852 15.8117 11.057 13.149C12.5481 10.4783 14.4565 8.06321 16.71 5.99501C17.7035 5.09012 18.8491 4.36801 20.094 3.86201C20.5445 3.65155 21.0357 3.54248 21.533 3.54248C22.0303 3.54248 22.5215 3.65155 22.972 3.86201C24.461 4.72001 24.954 7.34801 24.259 10.721C23.576 13.5856 22.4577 16.3285 20.943 18.854C19.5045 21.4932 17.6562 23.8874 15.467 25.947C14.4378 26.8878 13.2433 27.63 11.944 28.136C11.424 28.3296 10.8748 28.4334 10.32 28.443ZM12.093 13.743C10.5779 16.2927 9.47752 19.067 8.83301 21.962C8.28001 24.877 8.81101 26.63 9.58301 27.076C10.383 27.539 12.325 27.1 14.683 25.04C16.7731 23.0671 18.5374 20.7753 19.91 18.25C21.3609 15.8355 22.4337 13.2132 23.091 10.474C23.745 7.29901 23.18 5.35501 22.378 4.89301C22.0774 4.77802 21.7562 4.72656 21.4347 4.74188C21.1132 4.7572 20.7983 4.83896 20.51 4.98201C19.4017 5.43947 18.3828 6.08874 17.5 6.90001C15.3471 8.88122 13.5242 11.1933 12.1 13.749L12.093 13.743Z" fill="#00D8FF"/>
<path d="M21.677 28.456C20.322 28.456 18.601 27.636 16.809 26.095C14.5163 24.0077 12.5756 21.5639 11.062 18.858C9.49309 16.2322 8.35405 13.3724 7.68799 10.387C7.3998 9.0734 7.34631 7.71919 7.52999 6.38698C7.57317 5.89294 7.72391 5.41433 7.97163 4.98471C8.21935 4.55509 8.55805 4.18486 8.96399 3.89998C10.451 3.03898 12.974 3.92398 15.549 6.20998C17.6896 8.23216 19.5074 10.5707 20.939 13.144C22.507 15.7084 23.658 18.5056 24.349 21.431C24.6501 22.7927 24.6966 24.1984 24.486 25.577C24.4361 26.0854 24.2767 26.5771 24.0188 27.0181C23.7609 27.4591 23.4106 27.8391 22.992 28.132C22.59 28.3542 22.1362 28.466 21.677 28.456ZM12.097 18.256C13.5491 20.8419 15.4029 23.1807 17.589 25.185C19.838 27.12 21.622 27.536 22.389 27.085C23.189 26.62 23.779 24.722 23.171 21.651C22.5051 18.8579 21.4011 16.1878 19.9 13.74C18.5338 11.2771 16.7987 9.03784 14.755 7.09998C12.331 4.94798 10.365 4.46698 9.56399 4.93098C9.31447 5.13398 9.10969 5.38645 8.96254 5.67249C8.81539 5.95853 8.72906 6.27194 8.70899 6.59298C8.55012 7.78107 8.60191 8.98787 8.86199 10.158C9.50287 13.0129 10.5953 15.7473 12.098 18.258L12.097 18.256Z" fill="#00D8FF"/>
</svg>
