<svg width="33" height="32" viewBox="0 0 33 32" fill="none" xmlns="http://www.w3.org/2000/svg">
<path fill-rule="evenodd" clip-rule="evenodd" d="M16.3334 2C19.1023 2 21.8091 2.82109 24.1114 4.35943C26.4136 5.89777 28.2081 8.08427 29.2677 10.6424C30.3273 13.2006 30.6046 16.0155 30.0644 18.7313C29.5242 21.447 28.1908 23.9416 26.2329 25.8995C24.2749 27.8574 21.7804 29.1908 19.0646 29.731C16.3489 30.2712 13.534 29.9939 10.9758 28.9343C8.41764 27.8747 6.23114 26.0803 4.6928 23.778C3.15446 21.4757 2.33337 18.7689 2.33337 16C2.33337 12.287 3.80837 8.72601 6.43388 6.1005C9.05939 3.475 12.6203 2 16.3334 2Z" fill="#CC6699"/>
<path d="M25.1154 7.99191C24.4814 5.50591 20.3584 4.69191 16.4564 6.07391C14.0126 6.89494 11.7549 8.19 9.81238 9.88491C7.66338 11.8949 7.32038 13.6449 7.46138 14.3759C7.96138 16.9559 11.4944 18.6419 12.9474 19.8929V19.8999C12.5194 20.1109 9.38338 21.6999 8.64738 23.3199C7.87338 25.0319 8.77038 26.2599 9.36538 26.4249C10.2587 26.64 11.1969 26.57 12.0485 26.2248C12.9 25.8795 13.6221 25.2764 14.1134 24.4999C14.5197 23.871 14.7739 23.156 14.8559 22.4117C14.9378 21.6674 14.8452 20.9142 14.5854 20.2119C15.2851 20.0331 16.0128 19.9913 16.7284 20.0889C19.1844 20.3759 19.6664 21.9089 19.5744 22.5509C19.5311 22.7794 19.4391 22.996 19.3047 23.1858C19.1703 23.3756 18.9966 23.5342 18.7954 23.6509C18.6234 23.7579 18.5704 23.7939 18.5854 23.8739C18.6064 23.9889 18.6854 23.9849 18.8324 23.9599C19.2015 23.8437 19.5267 23.6184 19.7652 23.3136C20.0036 23.0089 20.1442 22.6391 20.1684 22.2529C20.2274 20.7529 18.7864 19.0669 16.2344 19.1099C15.4931 19.0881 14.7534 19.1895 14.0454 19.4099L13.9374 19.2899C12.3594 17.6069 9.44338 16.4159 9.56638 14.1529C9.61138 13.3299 9.89738 11.1639 15.1664 8.53591C19.4864 6.38291 22.9444 6.97591 23.5424 8.28891C24.3964 10.1649 21.6944 13.6499 17.2084 14.1529C16.7126 14.2536 16.2004 14.2413 15.71 14.117C15.2196 13.9927 14.7634 13.7596 14.3754 13.4349C14.1394 13.1749 14.1044 13.1639 14.0164 13.2119C13.8734 13.2909 13.9644 13.5209 14.0164 13.6569C14.1882 13.9665 14.4201 14.2386 14.6984 14.4574C14.9768 14.6761 15.296 14.8371 15.6374 14.9309C17.4012 15.3136 19.2407 15.1317 20.8954 14.4109C23.6164 13.3619 25.7384 10.4369 25.1154 7.99191ZM13.5514 20.6629C13.749 21.3477 13.7389 22.0758 13.5224 22.7549C13.499 22.8256 13.4734 22.8956 13.4454 22.9649C13.4174 23.0342 13.387 23.1009 13.3544 23.1649C13.185 23.5086 12.9671 23.8262 12.7074 24.1079C11.8944 24.9949 10.7574 25.3309 10.2704 25.0479C9.74438 24.7429 10.0074 23.4919 10.9504 22.4949C11.6752 21.7787 12.5106 21.1838 13.4244 20.7329L13.5514 20.6629Z" fill="white"/>
</svg>
