<svg width="33" height="32" viewBox="0 0 33 32" fill="none" xmlns="http://www.w3.org/2000/svg">
<path d="M8.77566 4.26011L16.6667 3.43311L24.5577 4.26111L30.6667 12.4001L16.6667 28.5671L2.66666 12.4001L8.77566 4.26011Z" fill="#FDB300"/>
<path d="M8.33766 12.395L16.6667 28.567L2.66666 12.395H8.33766ZM24.9957 12.395L16.6667 28.567L30.6667 12.395H24.9957Z" fill="#EA6C00"/>
<path d="M8.33765 12.395H24.9957L16.6667 28.567L8.33765 12.395Z" fill="#FDAD00"/>
<path d="M16.6667 3.43311L8.77565 4.26011L8.33765 12.3951L16.6667 3.43311ZM16.6667 3.43311L24.5577 4.26011L24.9957 12.3951L16.6667 3.43311Z" fill="#FDD231"/>
<path d="M30.6667 12.395L24.5577 4.26001L24.9957 12.395H30.6667ZM2.66666 12.395L8.77566 4.26001L8.33766 12.395H2.66666Z" fill="#FDAD00"/>
<path d="M16.6667 3.43311L8.33765 12.3951H24.9957L16.6667 3.43311Z" fill="#FEEEB7"/>
</svg>
