<svg width="32" height="32" viewBox="0 0 32 32" fill="none" xmlns="http://www.w3.org/2000/svg">
<path d="M30 16.0001C29.9998 19.239 28.8765 22.3777 26.8215 24.8813C24.7666 27.3849 21.9071 29.0985 18.7304 29.7302C15.5536 30.3619 12.2561 29.8725 9.39966 28.3455C6.54325 26.8185 4.30467 24.3483 3.06536 21.3558C1.82605 18.3633 1.66267 15.0337 2.60308 11.9343C3.54348 8.83483 5.52948 6.15735 8.22268 4.35803C10.9159 2.55871 14.1496 1.74889 17.373 2.06653C20.5963 2.38418 23.6098 3.80965 25.9 6.10006C27.2018 7.39886 28.2341 8.94206 28.9377 10.641C29.6413 12.34 30.0023 14.1612 30 16.0001Z" fill="white"/>
<path d="M27.9 16C27.8998 18.7531 26.945 21.421 25.1983 23.5491C23.4516 25.6771 21.021 27.1337 18.3208 27.6706C15.6205 28.2076 12.8176 27.7916 10.3897 26.4936C7.96173 25.1957 6.05895 23.096 5.00553 20.5524C3.95212 18.0088 3.81325 15.1786 4.61259 12.5441C5.41194 9.90956 7.10003 7.6337 9.38925 6.10428C11.6785 4.57486 14.4272 3.8865 17.167 4.1565C19.9069 4.4265 22.4683 5.63815 24.415 7.585C25.5217 8.68879 26.3994 10.0005 26.9975 11.4446C27.5956 12.8888 27.9023 14.4369 27.9 16Z" fill="#6D9A00"/>
<path d="M11.66 15.9831C11.6549 15.8535 11.6768 15.7242 11.7241 15.6035C11.7714 15.4827 11.8432 15.373 11.935 15.2813C12.0267 15.1897 12.1365 15.118 12.2573 15.0708C12.3781 15.0236 12.5074 15.0019 12.637 15.0071C12.83 15.0073 13.0186 15.0647 13.179 15.1721C13.3394 15.2794 13.4643 15.4319 13.538 15.6103C13.6117 15.7887 13.6309 15.9849 13.5931 16.1741C13.5554 16.3634 13.4623 16.5372 13.3258 16.6736C13.1893 16.81 13.0154 16.9028 12.8261 16.9404C12.6368 16.978 12.4406 16.9586 12.2623 16.8847C12.084 16.8108 11.9316 16.6857 11.8244 16.5252C11.7172 16.3648 11.66 16.1761 11.66 15.9831ZM15.031 15.9831C15.0259 15.8535 15.0478 15.7242 15.0951 15.6035C15.1424 15.4827 15.2142 15.373 15.306 15.2813C15.3977 15.1897 15.5075 15.118 15.6283 15.0708C15.7491 15.0236 15.8784 15.0019 16.008 15.0071C16.201 15.0073 16.3896 15.0647 16.55 15.1721C16.7104 15.2794 16.8353 15.4319 16.909 15.6103C16.9827 15.7887 17.0019 15.9849 16.9641 16.1741C16.9264 16.3634 16.8333 16.5372 16.6968 16.6736C16.5603 16.81 16.3864 16.9028 16.1971 16.9404C16.0078 16.978 15.8116 16.9586 15.6333 16.8847C15.455 16.8108 15.3026 16.6857 15.1954 16.5252C15.0882 16.3648 15.031 16.1761 15.031 15.9831ZM18.4 15.9831C18.3949 15.8535 18.4168 15.7242 18.4641 15.6035C18.5114 15.4827 18.5832 15.373 18.675 15.2813C18.7667 15.1897 18.8765 15.118 18.9973 15.0708C19.1181 15.0236 19.2474 15.0019 19.377 15.0071C19.57 15.0073 19.7586 15.0647 19.919 15.1721C20.0794 15.2794 20.2043 15.4319 20.278 15.6103C20.3517 15.7887 20.3709 15.9849 20.3331 16.1741C20.2954 16.3634 20.2023 16.5372 20.0658 16.6736C19.9293 16.81 19.7554 16.9028 19.5661 16.9404C19.3768 16.978 19.1806 16.9586 19.0023 16.8847C18.824 16.8108 18.6716 16.6857 18.5644 16.5252C18.4572 16.3648 18.4 16.1761 18.4 15.9831Z" fill="white"/>
<path d="M7.61902 16.8899V15.1419C7.91839 15.142 8.21583 15.094 8.50002 14.9999C8.68474 14.8969 8.83684 14.7441 8.93902 14.5589C9.07364 14.3193 9.15994 14.0557 9.19302 13.7829C9.23877 13.3793 9.25715 12.973 9.24802 12.5669C9.22766 11.9078 9.26884 11.2483 9.37102 10.5969C9.43384 10.2615 9.5882 9.95003 9.81702 9.6969C10.027 9.43736 10.3087 9.24538 10.627 9.1449C11.0575 9.04072 11.5004 8.99664 11.943 9.0139H12.306V10.4509C11.9776 10.4308 11.6481 10.4615 11.329 10.5419C11.194 10.5948 11.0813 10.6926 11.01 10.8189C10.933 11.1264 10.8993 11.4431 10.91 11.7599C10.91 12.0659 10.8894 12.6462 10.848 13.5009C10.8392 13.8966 10.7794 14.2895 10.67 14.6699C10.5913 14.9356 10.4671 15.1856 10.303 15.4089C10.1075 15.6424 9.87749 15.8447 9.62102 16.0089C9.87547 16.1595 10.0999 16.3558 10.283 16.5879C10.4632 16.8276 10.5968 17.099 10.677 17.3879C10.7829 17.8024 10.8426 18.2273 10.855 18.6549C10.887 19.4609 10.903 19.9756 10.903 20.1989C10.8906 20.5134 10.9277 20.8279 11.013 21.1309C11.0902 21.2602 11.2069 21.3612 11.346 21.4189C11.6595 21.5042 11.9847 21.5379 12.309 21.5189V23.0049H11.946C11.5075 23.016 11.0704 22.951 10.654 22.8129C10.336 22.7177 10.0484 22.5408 9.82002 22.2999C9.58969 22.0465 9.43213 21.7355 9.36402 21.3999C9.2704 20.843 9.23121 20.2784 9.24702 19.7139C9.27087 19.1313 9.23401 18.5478 9.13702 17.9729C9.07611 17.654 8.91661 17.3623 8.68102 17.1389C8.35513 16.9638 7.98877 16.8779 7.61902 16.8899ZM23.285 17.1429C23.0494 17.3663 22.8899 17.658 22.829 17.9769C22.732 18.5518 22.6952 19.1353 22.719 19.7179C22.7339 20.2811 22.6941 20.8444 22.6 21.3999C22.5319 21.7355 22.3743 22.0465 22.144 22.2999C21.9168 22.5436 21.6296 22.7233 21.311 22.8209C20.8947 22.959 20.4575 23.024 20.019 23.0129H19.656V21.5299C19.9803 21.5489 20.3056 21.5152 20.619 21.4299C20.7581 21.3722 20.8749 21.2712 20.952 21.1419C21.0374 20.8389 21.0745 20.5244 21.062 20.2099C21.062 19.9866 21.078 19.4719 21.11 18.6659C21.1232 18.2386 21.1835 17.814 21.29 17.3999C21.3702 17.111 21.5039 16.8396 21.684 16.5999C21.8671 16.3678 22.0916 16.1715 22.346 16.0209C22.0895 15.8567 21.8596 15.6544 21.664 15.4209C21.4999 15.1976 21.3758 14.9476 21.297 14.6819C21.1876 14.3015 21.1278 13.9086 21.119 13.5129C21.0777 12.6582 21.057 12.0779 21.057 11.7719C21.0677 11.4551 21.0341 11.1384 20.957 10.8309C20.8857 10.7046 20.7731 10.6068 20.638 10.5539C20.319 10.4735 19.9894 10.4428 19.661 10.4629V9.0159H20.024C20.4666 8.99864 20.9095 9.04272 21.34 9.1469C21.6584 9.24738 21.9401 9.43936 22.15 9.6989C22.3788 9.95203 22.5332 10.2635 22.596 10.5989C22.6982 11.2503 22.7394 11.9098 22.719 12.5689C22.7099 12.975 22.7283 13.3813 22.774 13.7849C22.8071 14.0577 22.8934 14.3213 23.028 14.5609C23.1302 14.7461 23.2823 14.8989 23.467 15.0019C23.7517 15.0969 24.0499 15.1455 24.35 15.1459V16.8899C23.9789 16.8786 23.6114 16.9659 23.285 17.1429Z" fill="white"/>
</svg>
