<svg width="32" height="32" viewBox="0 0 32 32" fill="none" xmlns="http://www.w3.org/2000/svg">
<path d="M5.09143 7.70916C4.98427 7.72194 4.87941 7.74954 4.77985 7.79117L2.64826 8.67072C2.43565 8.75936 2.25387 8.90868 2.12563 9.10003C1.9974 9.29139 1.9284 9.51629 1.92725 9.74663L1.92725 22.2538C1.92841 22.4842 1.99745 22.7091 2.12572 22.9005C2.254 23.0918 2.43582 23.2411 2.64848 23.3297L4.77985 24.2238C4.97998 24.3076 5.19943 24.3341 5.41377 24.3006C5.62811 24.267 5.82892 24.1746 5.99384 24.0336L6.47144 23.6231C6.37452 23.6927 6.26027 23.7342 6.14127 23.743C6.02228 23.7518 5.90316 23.7275 5.79705 23.673C5.69095 23.6184 5.60197 23.5356 5.53993 23.4337C5.47788 23.3317 5.44519 23.2147 5.44544 23.0953V8.90512C5.44519 8.7858 5.47788 8.66873 5.53993 8.5668C5.60197 8.46488 5.69095 8.38207 5.79705 8.32749C5.90316 8.27291 6.02228 8.24869 6.14127 8.2575C6.26027 8.2663 6.37452 8.30779 6.47144 8.37739L5.99384 7.98182C5.87052 7.8764 5.72666 7.79773 5.57136 7.7508C5.41606 7.70386 5.25249 7.68968 5.09143 7.70916Z" fill="#52218A"/>
<path d="M22.7616 2.01889C22.4927 1.98131 22.2189 2.00647 21.9614 2.09237C21.7039 2.17828 21.4698 2.32261 21.2773 2.51407L3.10013 22.6118C3.00786 22.7109 2.88802 22.78 2.75607 22.8103C2.62411 22.8406 2.4861 22.8307 2.35985 22.7818C2.2336 22.7329 2.1249 22.6473 2.04779 22.536C1.97068 22.4247 1.92869 22.2929 1.92725 22.1575V22.2542C1.92846 22.4846 1.99751 22.7094 2.12578 22.9008C2.25406 23.0921 2.43586 23.2413 2.64848 23.3299L4.77985 24.224C4.97998 24.3078 5.19943 24.3343 5.41377 24.3008C5.62811 24.2672 5.82892 24.1748 5.99384 24.0338L6.47144 23.6233L28.2579 5.75961C28.4206 5.62639 28.6178 5.54209 28.8265 5.51649C29.0352 5.4909 29.2469 5.52506 29.437 5.61501C29.6271 5.70496 29.7877 5.84701 29.9003 6.02464C30.0128 6.20227 30.0727 6.4082 30.0728 6.61849V6.55099C30.073 6.21957 29.9795 5.89486 29.8031 5.61425C29.6268 5.33365 29.3748 5.10857 29.0761 4.96494L23.277 2.17391C23.1142 2.0961 22.9403 2.04381 22.7616 2.01889Z" fill="#6C33AF"/>
<path d="M5.19719 7.69651C5.05343 7.702 4.91193 7.73406 4.77985 7.79106L2.64826 8.67061C2.43565 8.75925 2.25387 8.90857 2.12563 9.09992C1.9974 9.29128 1.9284 9.51618 1.92725 9.74652V9.84349C1.92869 9.70811 1.97068 9.57626 2.04779 9.46498C2.1249 9.35369 2.2336 9.26808 2.35985 9.21917C2.4861 9.17027 2.62411 9.16034 2.75607 9.19064C2.88802 9.22095 3.00786 9.29011 3.10013 9.3892L21.2773 29.4865C21.5348 29.7427 21.8652 29.9129 22.2232 29.9738C22.5812 30.0347 22.9493 29.9833 23.277 29.8266L29.0761 27.0354C29.3747 26.8918 29.6267 26.6667 29.8031 26.3862C29.9794 26.1056 30.0729 25.7809 30.0728 25.4496V25.3821C30.0727 25.5923 30.0128 25.7983 29.9003 25.9759C29.7877 26.1535 29.6271 26.2956 29.437 26.3855C29.2469 26.4755 29.0352 26.5096 28.8265 26.4841C28.6178 26.4585 28.4206 26.3741 28.2579 26.2409L6.47144 8.37728L5.99384 7.96719C5.77092 7.78155 5.48706 7.68496 5.19719 7.69651Z" fill="#854CC7"/>
<path d="M22.7616 2.01888C22.3198 1.96484 21.874 2.08027 21.5139 2.34189C21.6712 2.25694 21.8477 2.21427 22.0264 2.21806C22.2051 2.22185 22.3797 2.27197 22.5331 2.36351C22.6866 2.45505 22.8137 2.58488 22.9019 2.74028C22.9901 2.89568 23.0365 3.07133 23.0364 3.25003V28.757C23.036 28.9606 22.9753 29.1595 22.862 29.3286C22.7488 29.4978 22.588 29.6297 22.4 29.7077C22.2119 29.7858 22.005 29.8064 21.8052 29.7671C21.6055 29.7278 21.4218 29.6302 21.2773 29.4868C21.5348 29.743 21.8652 29.9132 22.2232 29.9741C22.5812 30.035 22.9493 29.9836 23.277 29.8269L29.0761 27.0388C29.3748 26.8951 29.6268 26.6701 29.8031 26.3895C29.9795 26.1088 30.073 25.7841 30.0728 25.4527V6.54856C30.0731 6.21707 29.9796 5.89226 29.8033 5.61157C29.6269 5.33088 29.3748 5.10573 29.0761 4.96207L23.277 2.17368C23.1142 2.09595 22.9403 2.04374 22.7616 2.01888ZM21.5139 2.34189C21.4273 2.38777 21.3476 2.44574 21.2773 2.51406C21.3513 2.4502 21.4304 2.39261 21.5139 2.34189Z" fill="#B179F1"/>
<path opacity="0.25" fill-rule="evenodd" clip-rule="evenodd" d="M22.6285 2.0042C22.4034 1.98955 22.1775 2.01837 21.9632 2.08907C21.7047 2.17577 21.4699 2.32135 21.2773 2.51434L11.9308 12.8521L6.47144 8.37785L5.99384 7.96776C5.85016 7.84475 5.67884 7.75834 5.4945 7.71591C5.31017 7.67349 5.11831 7.67631 4.93531 7.72413C4.88171 7.73596 4.82957 7.75366 4.77985 7.7769L2.64826 8.67118C2.44873 8.75353 2.27583 8.88938 2.1486 9.06374C2.02138 9.23811 1.94478 9.44422 1.92725 9.65936V22.3422C1.94484 22.5574 2.02149 22.7634 2.14875 22.9378C2.27601 23.1121 2.44894 23.2479 2.64848 23.3302L4.77985 24.2097C4.82957 24.233 4.88171 24.2507 4.93531 24.2625C5.11826 24.3104 5.31009 24.3134 5.49442 24.271C5.67875 24.2287 5.8501 24.1424 5.99384 24.0195L6.47144 23.6235L11.9308 19.1497L21.2773 29.487C21.5103 29.7198 21.8039 29.8824 22.1248 29.9565C22.5124 30.0449 22.9186 29.9993 23.277 29.8272L29.0761 27.039C29.3748 26.8954 29.6268 26.6703 29.8031 26.3897C29.9795 26.1091 30.073 25.7844 30.0728 25.453V6.54883C30.0731 6.21734 29.9796 5.89253 29.8033 5.61184C29.6269 5.33115 29.3748 5.106 29.0761 4.96234L23.277 2.17395C23.0737 2.07622 22.8534 2.01852 22.6283 2.00398L22.6285 2.0042ZM23.0364 10.0433V21.9581L15.7685 16.0009L23.0364 10.0433ZM5.44544 11.9754L9.08392 16.0009L5.44544 20.0264V11.9754Z" fill="url(#paint0_linear_2486_686)"/>
<defs>
<linearGradient id="paint0_linear_2486_686" x1="12.4818" y1="1.92768" x2="12.4818" y2="22.9269" gradientUnits="userSpaceOnUse">
<stop stop-color="white"/>
<stop offset="1" stop-color="white" stop-opacity="0"/>
</linearGradient>
</defs>
</svg>
