<svg width="32" height="32" viewBox="0 0 32 32" fill="none" xmlns="http://www.w3.org/2000/svg">
<mask id="mask0_2486_692" style="mask-type:alpha" maskUnits="userSpaceOnUse" x="2" y="2" width="29" height="28">
<path fill-rule="evenodd" clip-rule="evenodd" d="M21.9585 29.8804C22.1825 29.9677 22.4221 30.0079 22.6623 29.9987C22.9025 29.9895 23.1382 29.9309 23.3548 29.8267L29.1495 27.0383C29.4479 26.8947 29.6997 26.6697 29.8759 26.3893C30.0522 26.1088 30.1456 25.7843 30.1456 25.4532V6.54662C30.1457 6.21539 30.0522 5.89087 29.876 5.6104C29.6998 5.32993 29.448 5.10491 29.1495 4.96124L23.3548 2.1733C23.0274 2.01575 22.6591 1.96388 22.3009 2.02486C21.9427 2.08584 21.6123 2.25666 21.3554 2.51368L10.2621 12.6342L5.43031 8.96626C5.21232 8.80085 4.94331 8.71693 4.66993 8.72906C4.39655 8.74119 4.13603 8.8486 3.93354 9.03266L2.38378 10.4424C2.26301 10.5522 2.16649 10.6861 2.10041 10.8353C2.03432 10.9846 2.00012 11.146 2 11.3093C1.99988 11.4726 2.03383 11.634 2.09969 11.7834C2.16554 11.9328 2.26186 12.0668 2.38246 12.1768L6.57285 15.9998L2.38268 19.823C2.26214 19.933 2.16589 20.067 2.10007 20.2163C2.03425 20.3657 2.00032 20.5271 2.00045 20.6904C2.00057 20.8536 2.03475 21.015 2.10079 21.1642C2.16684 21.3135 2.26329 21.4473 2.384 21.5572L3.93376 22.9669C4.13623 23.151 4.39673 23.2584 4.67011 23.2706C4.94349 23.2828 5.21251 23.1989 5.43053 23.0335L10.2623 19.3658L21.3556 29.4861C21.5273 29.6577 21.7324 29.792 21.9585 29.8804ZM23.1134 9.61053L14.6963 15.9998L23.1136 22.3893L23.1134 9.61053Z" fill="white"/>
</mask>
<g mask="url(#mask0_2486_692)">
<path d="M29.1497 4.96566L23.3504 2.17309C23.0228 2.01534 22.6543 1.96336 22.2959 2.02435C21.9375 2.08534 21.607 2.25627 21.3501 2.51348L2.36546 19.8227C2.24483 19.9327 2.1485 20.0667 2.08262 20.2161C2.01675 20.3654 1.98279 20.5269 1.98291 20.6902C1.98303 20.8534 2.01724 21.0148 2.08334 21.1641C2.14945 21.3134 2.24599 21.4472 2.36678 21.557L3.91743 22.9667C4.11995 23.151 4.38063 23.2586 4.6542 23.2708C4.92778 23.2829 5.19698 23.1989 5.41508 23.0333L28.2769 5.68974C29.0439 5.10792 30.1455 5.655 30.1455 6.61767V6.55038C30.1455 6.21925 30.0521 5.89483 29.8759 5.61445C29.6997 5.33407 29.448 5.10933 29.1497 4.96566Z" fill="#0065A9"/>
<g filter="url(#filter0_d_2486_692)">
<path d="M29.1497 27.0335L23.3504 29.8257C23.0229 29.9835 22.6544 30.0355 22.296 29.9746C21.9376 29.9137 21.607 29.7429 21.3501 29.4857L2.36546 12.1762C2.24483 12.0662 2.1485 11.9323 2.08262 11.7829C2.01675 11.6335 1.98279 11.4721 1.98291 11.3088C1.98303 11.1456 2.01724 10.9841 2.08334 10.8349C2.14945 10.6856 2.24599 10.5518 2.36678 10.442L3.91743 9.03229C4.11995 8.84797 4.38063 8.74038 4.6542 8.72821C4.92778 8.71604 5.19698 8.80005 5.41508 8.96567L28.2769 26.309C29.0439 26.8911 30.1455 26.344 30.1455 25.3813V25.4486C30.1455 25.7797 30.0521 26.1042 29.8759 26.3845C29.6997 26.6649 29.448 26.8899 29.1497 27.0335Z" fill="#007ACC"/>
</g>
<g filter="url(#filter1_d_2486_692)">
<path d="M23.3506 29.8265C23.023 29.9839 22.6545 30.0357 22.2961 29.9747C21.9378 29.9137 21.6072 29.7429 21.3501 29.4859C21.9992 30.135 23.1092 29.6752 23.1092 28.7572V3.24172C23.1092 2.3237 21.9992 1.86391 21.3501 2.51324C21.6072 2.25623 21.9378 2.08542 22.2961 2.02441C22.6545 1.96339 23.023 2.01519 23.3506 2.17263L29.1488 4.96124C29.4474 5.10482 29.6994 5.32979 29.8757 5.61027C30.052 5.89075 30.1456 6.21532 30.1456 6.54662V25.4529C30.1456 25.7842 30.052 26.1088 29.8757 26.3893C29.6994 26.6698 29.4474 26.8947 29.1488 27.0383L23.3506 29.8265Z" fill="#1F9CF0"/>
</g>
<path opacity="0.25" fill-rule="evenodd" clip-rule="evenodd" d="M21.9416 29.8804C22.1655 29.9676 22.405 30.0079 22.6452 29.9987C22.8853 29.9894 23.121 29.9309 23.3376 29.8267L29.1323 27.0383C29.4308 26.8946 29.6826 26.6696 29.8588 26.3892C30.035 26.1087 30.1285 25.7842 30.1284 25.4529V6.54662C30.1285 6.21539 30.035 5.89087 29.8588 5.6104C29.6826 5.32993 29.4308 5.10491 29.1323 4.96124L23.3376 2.1733C23.0102 2.01575 22.6419 1.96388 22.2837 2.02486C21.9255 2.08584 21.5951 2.25666 21.3382 2.51368L10.2449 12.6342L5.41312 8.96648C5.19512 8.80107 4.92612 8.71715 4.65274 8.72928C4.37936 8.74141 4.11884 8.84882 3.91635 9.03289L2.36658 10.4426C2.24584 10.5524 2.14935 10.6863 2.08329 10.8356C2.01722 10.9849 1.98303 11.1463 1.98291 11.3095C1.98279 11.4728 2.01673 11.6342 2.08257 11.7836C2.1484 11.933 2.24469 12.067 2.36527 12.177L6.55565 15.9998L2.36549 19.8227C2.24488 19.9328 2.14857 20.0668 2.08271 20.2161C2.01685 20.3655 1.9829 20.527 1.98302 20.6903C1.98315 20.8535 2.01735 21.0149 2.08343 21.1642C2.14952 21.3135 2.24603 21.4474 2.3668 21.5572L3.91657 22.9669C4.11903 23.151 4.37954 23.2584 4.65292 23.2706C4.9263 23.2828 5.19532 23.1989 5.41334 23.0335L10.2453 19.3656L21.3386 29.4861C21.5103 29.6577 21.7155 29.7919 21.9416 29.8804ZM23.0964 9.61031L14.6791 15.9998L23.0964 22.389V9.61031Z" fill="url(#paint0_linear_2486_692)"/>
</g>
<defs>
<filter id="filter0_d_2486_692" x="0.150373" y="6.89451" width="31.8277" height="24.9375" filterUnits="userSpaceOnUse" color-interpolation-filters="sRGB">
<feFlood flood-opacity="0" result="BackgroundImageFix"/>
<feColorMatrix in="SourceAlpha" type="matrix" values="0 0 0 0 0 0 0 0 0 0 0 0 0 0 0 0 0 0 127 0" result="hardAlpha"/>
<feOffset/>
<feGaussianBlur stdDeviation="0.916268"/>
<feColorMatrix type="matrix" values="0 0 0 0 0 0 0 0 0 0 0 0 0 0 0 0 0 0 0.25 0"/>
<feBlend mode="overlay" in2="BackgroundImageFix" result="effect1_dropShadow_2486_692"/>
<feBlend mode="normal" in="SourceGraphic" in2="effect1_dropShadow_2486_692" result="shape"/>
</filter>
<filter id="filter1_d_2486_692" x="19.5176" y="0.166975" width="12.4606" height="31.6651" filterUnits="userSpaceOnUse" color-interpolation-filters="sRGB">
<feFlood flood-opacity="0" result="BackgroundImageFix"/>
<feColorMatrix in="SourceAlpha" type="matrix" values="0 0 0 0 0 0 0 0 0 0 0 0 0 0 0 0 0 0 127 0" result="hardAlpha"/>
<feOffset/>
<feGaussianBlur stdDeviation="0.916268"/>
<feColorMatrix type="matrix" values="0 0 0 0 0 0 0 0 0 0 0 0 0 0 0 0 0 0 0.25 0"/>
<feBlend mode="overlay" in2="BackgroundImageFix" result="effect1_dropShadow_2486_692"/>
<feBlend mode="normal" in="SourceGraphic" in2="effect1_dropShadow_2486_692" result="shape"/>
</filter>
<linearGradient id="paint0_linear_2486_692" x1="16.0556" y1="1.99958" x2="16.0556" y2="30" gradientUnits="userSpaceOnUse">
<stop stop-color="white"/>
<stop offset="1" stop-color="white" stop-opacity="0"/>
</linearGradient>
</defs>
</svg>
