<svg width="33" height="32" viewBox="0 0 33 32" fill="none" xmlns="http://www.w3.org/2000/svg">
<path d="M17.4465 10.0268L13.6965 16.2143L17.6965 22.7768C17.7215 22.8268 17.734 22.8768 17.7215 22.9268C17.709 22.9768 17.659 22.9393 17.584 22.9518H14.7215C14.5215 22.9518 14.384 22.9393 14.2965 22.8143C14.034 22.2893 13.759 21.7768 13.4965 21.2518C13.234 20.7393 12.9465 20.2143 12.6465 19.6768C12.3465 19.1393 12.0465 18.6018 11.7465 18.0518H11.7215C11.459 18.5893 11.1715 19.1268 10.884 19.6643C10.5965 20.2018 10.309 20.7393 10.034 21.2643C9.74653 21.7893 9.45903 22.3268 9.17153 22.8393C9.12153 22.9643 9.02153 22.9768 8.88403 22.9768H6.13403C6.08403 22.9768 6.04653 23.0018 6.04653 22.9393C6.03403 22.8893 6.04653 22.8393 6.07153 22.8018L9.95903 16.4268L6.17153 10.0143C6.13403 9.96432 6.12153 9.91432 6.14653 9.88932C6.17153 9.85182 6.22153 9.83932 6.27153 9.83932H9.10903C9.17153 9.83932 9.23403 9.85182 9.28403 9.86432C9.33403 9.88932 9.37153 9.92682 9.40903 9.97682C9.64653 10.5143 9.92153 11.0518 10.209 11.5893C10.509 12.1268 10.7965 12.6518 11.109 13.1768C11.409 13.7018 11.684 14.2268 11.9465 14.7643H11.9715C12.234 14.2143 12.509 13.6768 12.784 13.1518C13.059 12.6268 13.3465 12.1018 13.634 11.5768C13.9215 11.0518 14.1965 10.5143 14.4715 10.0018C14.484 9.95182 14.509 9.90182 14.5465 9.87682C14.5965 9.85182 14.6465 9.83932 14.709 9.85182H17.3465C17.409 9.83932 17.4715 9.87682 17.484 9.93932C17.4965 9.95182 17.4715 10.0018 17.4465 10.0268ZM23.2215 23.2144C22.2965 23.2269 21.3715 23.0394 20.534 22.6519C19.7465 22.2894 19.0965 21.6894 18.6465 20.9519C18.184 20.1894 17.959 19.2394 17.959 18.1019C17.9465 17.1769 18.184 16.2644 18.6465 15.4644C19.1215 14.6519 19.809 13.9769 20.634 13.5269C21.509 13.0394 22.559 12.8019 23.7965 12.8019C23.859 12.8019 23.9465 12.8019 24.059 12.8144C24.1715 12.8269 24.2965 12.8269 24.4465 12.8394V8.88944C24.4465 8.80194 24.484 8.75194 24.5715 8.75194H27.109C27.1715 8.73944 27.2215 8.78944 27.234 8.83944V20.7644C27.234 20.9894 27.2465 21.2394 27.259 21.5144C27.284 21.7769 27.2965 22.0269 27.309 22.2394C27.309 22.3269 27.2715 22.4019 27.184 22.4394C26.534 22.7144 25.8465 22.9144 25.1465 23.0394C24.509 23.1519 23.8715 23.2144 23.2215 23.2144ZM24.4465 20.7144V15.2144C24.334 15.1894 24.2215 15.1644 24.109 15.1519C23.9715 15.1394 23.834 15.1269 23.6965 15.1269C23.209 15.1269 22.7215 15.2269 22.284 15.4519C21.859 15.6644 21.4965 15.9769 21.2215 16.3769C20.9465 16.7769 20.809 17.3144 20.809 17.9644C20.7965 18.4019 20.8715 18.8394 21.0215 19.2519C21.1465 19.5894 21.334 19.8894 21.584 20.1394C21.8215 20.3644 22.109 20.5394 22.434 20.6394C22.7715 20.7519 23.1215 20.8019 23.4715 20.8019C23.659 20.8019 23.834 20.7894 23.9965 20.7769C24.159 20.7894 24.2965 20.7644 24.4465 20.7144Z" fill="#FF61F6"/>
</svg>
